<svg xmlns="http://www.w3.org/2000/svg" xmlns:xlink="http://www.w3.org/1999/xlink" viewBox="0 0 82.59 52.07"><defs><style>.cls-1,.cls-10{fill:none;}.cls-2,.cls-5,.cls-7{font-size:14.13px;}.cls-2,.cls-3,.cls-5,.cls-6{fill:#e8cfa4;}.cls-2,.cls-3{stroke:#29364c;stroke-linecap:round;stroke-linejoin:round;stroke-width:3px;}.cls-2,.cls-3,.cls-5,.cls-6,.cls-7,.cls-8{font-family:Headster-Regular, Headster;}.cls-3,.cls-6,.cls-8{font-size:25.9px;}.cls-4{letter-spacing:0.03em;}.cls-5,.cls-6{stroke:#e8cfa4;stroke-width:0.5px;}.cls-10,.cls-5,.cls-6{stroke-miterlimit:10;}.cls-7,.cls-8{fill:#d7bd99;}.cls-9{clip-path:url(#clip-path);}.cls-10{stroke:#cea472;stroke-width:0.25px;}.cls-11{clip-path:url(#clip-path-2);}.cls-12{clip-path:url(#clip-path-3);}.cls-13{clip-path:url(#clip-path-4);}.cls-14{clip-path:url(#clip-path-5);}.cls-15{clip-path:url(#clip-path-6);}.cls-16{clip-path:url(#clip-path-7);}.cls-17{clip-path:url(#clip-path-8);}.cls-18{clip-path:url(#clip-path-9);}.cls-19{clip-path:url(#clip-path-10);}.cls-20{clip-path:url(#clip-path-11);}.cls-21{clip-path:url(#clip-path-12);}.cls-22{clip-path:url(#clip-path-13);}.cls-23{clip-path:url(#clip-path-14);}.cls-24{clip-path:url(#clip-path-15);}.cls-25{clip-path:url(#clip-path-16);}.cls-26{clip-path:url(#clip-path-17);}.cls-27{clip-path:url(#clip-path-18);}.cls-28{clip-path:url(#clip-path-19);}.cls-29{clip-path:url(#clip-path-20);}.cls-30{clip-path:url(#clip-path-21);}.cls-31{clip-path:url(#clip-path-22);}.cls-32{clip-path:url(#clip-path-23);}.cls-33{clip-path:url(#clip-path-24);}.cls-34{clip-path:url(#clip-path-25);}.cls-35{clip-path:url(#clip-path-26);}.cls-36{clip-path:url(#clip-path-27);}.cls-37{clip-path:url(#clip-path-28);}.cls-38{clip-path:url(#clip-path-29);}.cls-39{clip-path:url(#clip-path-30);}</style><clipPath id="clip-path" transform="translate(4.15)"><path class="cls-1" d="M31,16.79a3.5,3.5,0,0,0-1.43,1.06A13.31,13.31,0,0,0,28.07,20c-.5.85-1,1.81-1.56,2.89s-1.09,2.22-1.66,3.43a4.09,4.09,0,0,0,.83.23,3.92,3.92,0,0,1,1.23-.93,2.65,2.65,0,0,1,1.15-.27,1.36,1.36,0,0,1,.84.27.84.84,0,0,1,.33.7A1.13,1.13,0,0,1,29,27a1.45,1.45,0,0,1-.61.42,3.76,3.76,0,0,1-.91.18,10.12,10.12,0,0,1-1.11,0,6.56,6.56,0,0,0-.12.75,8.42,8.42,0,0,0,0,.88,4.9,4.9,0,0,0,.1.93,4.74,4.74,0,0,0,.25.88c.08.25,0,.41-.16.5a5.24,5.24,0,0,0-1.42.86c-.45.38-.82.69-1.09,1a.2.2,0,0,1-.24,0,.23.23,0,0,1-.12-.22A13.51,13.51,0,0,1,24,29.83a9.73,9.73,0,0,1,.93-2.32l-.31,0a1.55,1.55,0,0,1-.31,0L22.23,32C21.53,33.53,20.78,35,20,36.5s-1.58,2.86-2.4,4.18A23.89,23.89,0,0,1,15,44.15a13.57,13.57,0,0,1-2.79,2.4,6.23,6.23,0,0,1-3,1,.16.16,0,0,1-.18-.05A.35.35,0,0,1,9,47.3a7.89,7.89,0,0,0,0-1.54,6.41,6.41,0,0,0-.31-1.58A6.26,6.26,0,0,0,8,42.74a4.34,4.34,0,0,0-1-1.14,3.05,3.05,0,0,1-.69-.75A5.35,5.35,0,0,1,5.92,40a6.82,6.82,0,0,1-.29-.87,5.28,5.28,0,0,1-.13-.74.21.21,0,0,1,.09-.21.25.25,0,0,1,.25,0,3.62,3.62,0,0,0,1,.35A11.69,11.69,0,0,0,9,38.65a5.16,5.16,0,0,0,2.78-.9,15.26,15.26,0,0,0,2.84-2.38A35.83,35.83,0,0,0,17.43,32c1-1.28,1.92-2.63,2.89-4a6.07,6.07,0,0,0-1.08.5c-.3.18-.55.34-.74.48a.21.21,0,0,1-.31-.18,2.49,2.49,0,0,0-.32-1.44,3.51,3.51,0,0,0-.66-.79.21.21,0,0,1-.09-.24.29.29,0,0,1,.17-.2,6.37,6.37,0,0,1,2.26-.56,11.54,11.54,0,0,1,2.35.12c1.22-1.79,2.44-3.51,3.64-5.14a27.29,27.29,0,0,1,3.56-4.05,21.75,21.75,0,0,0-2.83-.16,11.15,11.15,0,0,0-4,.64,9.6,9.6,0,0,0-2.82,1.61,9.06,9.06,0,0,0-1.86,2.15,12.3,12.3,0,0,0-1.11,2.25A10.4,10.4,0,0,0,16,24.81a8.07,8.07,0,0,0-.13,1.07.59.59,0,0,1-.42.39,7.07,7.07,0,0,1-.9.24c-.37.08-.77.18-1.21.3a4.89,4.89,0,0,0-1.29.57,4.43,4.43,0,0,0-1.17,1.05A4.74,4.74,0,0,0,10,30.15a.45.45,0,0,1-.21.24.34.34,0,0,1-.31,0,2.2,2.2,0,0,1-.87-1.08,5.76,5.76,0,0,1-.47-2,9.71,9.71,0,0,1,.17-2.52,9.34,9.34,0,0,1,1-2.76,11.75,11.75,0,0,1,2.09-2.71A13.12,13.12,0,0,1,14.81,17a21.21,21.21,0,0,1,4.87-1.62,32.12,32.12,0,0,1,6.59-.6c1,0,2.13,0,3.28.16l3.42.35c1.13.12,2.21.22,3.25.3a20.54,20.54,0,0,0,2.8,0,.27.27,0,0,1,.28.19.26.26,0,0,1-.1.33c-.31.26-.62.54-.93.85s-.6.62-.87.94-.51.61-.73.9l-.53.75a.38.38,0,0,1-.62-.05,3.54,3.54,0,0,0-.48-.65,5.38,5.38,0,0,0-.84-.75,7.1,7.1,0,0,0-1.31-.75A10.1,10.1,0,0,0,31,16.79Z"/></clipPath><clipPath id="clip-path-2" transform="translate(4.15)"><path class="cls-1" d="M70,31a.23.23,0,0,1,.21.13.24.24,0,0,1,0,.26q-.21.42-.63,1.2t-1,1.74c-.37.63-.78,1.27-1.23,1.91A20.33,20.33,0,0,1,66,38a9.55,9.55,0,0,1-1.43,1.32,2.34,2.34,0,0,1-1.33.52A2.61,2.61,0,0,1,62,39.55a2,2,0,0,1-.75-.66,2.37,2.37,0,0,1-.36-.87,4,4,0,0,1-.1-.88,4.27,4.27,0,0,1,.41-1.66,17.71,17.71,0,0,1,1-1.9c.38-.65.76-1.29,1.16-1.92s.72-1.19,1-1.68a3.35,3.35,0,0,0,.41-1.19c0-.3-.14-.46-.5-.46a1.79,1.79,0,0,0-1,.33,5.86,5.86,0,0,0-1,.83,10.79,10.79,0,0,0-1,1.1,11,11,0,0,0-.83,1.11q-.54,1.21-1,2.34c-.29.76-.53,1.46-.71,2.1a11.57,11.57,0,0,0-.37,1.78,3.92,3.92,0,0,0,0,1.34.26.26,0,0,1-.06.29.48.48,0,0,1-.3.15,2.74,2.74,0,0,1-1-.09c-.37-.09-.75-.17-1.14-.23a5,5,0,0,0-1.15-.05,2,2,0,0,0-1.12.45c-.08.07-.18.06-.29,0s-.12-.17,0-.22a3.58,3.58,0,0,0,.74-1c.36-.59.77-1.33,1.25-2.23s1-1.92,1.55-3.05,1.12-2.29,1.68-3.48S59.5,27.4,60,26.26s1-2.17,1.39-3.09.72-1.69,1-2.31a3.58,3.58,0,0,0,.33-1.1.26.26,0,0,1,.1-.21.19.19,0,0,1,.22,0c.22.07.49.16.8.28a2.79,2.79,0,0,0,1,.18,4.07,4.07,0,0,0,.84-.09c.29-.06.56-.13.82-.2s.49-.16.71-.25a3.55,3.55,0,0,1,.5-.18.21.21,0,0,1,.26.1.21.21,0,0,1,0,.29,13.3,13.3,0,0,0-1.4,1.62c-.52.68-1.06,1.44-1.61,2.28s-1.11,1.72-1.67,2.66S62.17,28.1,61.67,29q.21-.28.57-.69a5.54,5.54,0,0,1,.87-.77A6,6,0,0,1,64.23,27a3.61,3.61,0,0,1,1.38-.26,2.33,2.33,0,0,1,1.59.43,1.49,1.49,0,0,1,.45,1.13,4.34,4.34,0,0,1-.35,1.6c-.23.6-.5,1.2-.81,1.82s-.63,1.22-.95,1.81a14.47,14.47,0,0,0-.75,1.6,2.59,2.59,0,0,0-.23,1.13c0,.29.23.43.63.43a1.07,1.07,0,0,0,.62-.36c.26-.25.55-.55.86-.91s.63-.77,1-1.22.65-.87.94-1.28.56-.77.78-1.1.38-.56.47-.7A.19.19,0,0,1,70,31Z"/></clipPath><clipPath id="clip-path-3" transform="translate(4.15)"><path class="cls-1" d="M29.58,26.91a.2.2,0,0,1,.09-.22.22.22,0,0,1,.24,0c.21.08.43.19.68.31a1.82,1.82,0,0,0,.88.19,4.24,4.24,0,0,0,1.34-.23c.45-.15.8-.26,1-.32a.22.22,0,0,1,.27.09.18.18,0,0,1,0,.27,10.78,10.78,0,0,0-1.45,1.74q-.7,1-1.35,2.19a2.5,2.5,0,0,0,.22-.35c.13-.21.31-.48.53-.8s.49-.65.79-1a9.34,9.34,0,0,1,1-1A4.81,4.81,0,0,1,35,27a2.72,2.72,0,0,1,1.23-.3c.69,0,1.13.16,1.33.48a1.7,1.7,0,0,1,.18,1.21,6.72,6.72,0,0,1-.49,1.58c-.25.58-.49,1.1-.7,1.59a7.62,7.62,0,0,0-.45,1.21c-.09.32,0,.48.28.48a1.54,1.54,0,0,0,.84-.27,4.43,4.43,0,0,0,.79-.64,5.68,5.68,0,0,0,.62-.72c.18-.24.31-.43.39-.55a.27.27,0,0,1,.24-.13.25.25,0,0,1,.23.15.26.26,0,0,1,0,.27c-.14.26-.34.59-.61,1s-.57.8-.89,1.19a5.82,5.82,0,0,1-1.07,1,1.92,1.92,0,0,1-1.14.42,1.11,1.11,0,0,1-.75-.27L34.34,34a5.84,5.84,0,0,0-.84-.66,2.84,2.84,0,0,0-1.23-.43c-.11,0-.17-.07-.18-.17a.19.19,0,0,1,.1-.22,8.37,8.37,0,0,0,1.43-1.16A12.24,12.24,0,0,0,34.83,30a4,4,0,0,0,.64-1.19c.09-.33,0-.5-.33-.5a1.49,1.49,0,0,0-.84.4,9.42,9.42,0,0,0-1.07,1.05c-.38.43-.77.91-1.17,1.42s-.76,1-1.1,1.52-.63.94-.89,1.36a7.22,7.22,0,0,0-.52.93,16.82,16.82,0,0,0-.6,2.46,5.4,5.4,0,0,0,0,1.92.29.29,0,0,1-.07.29.33.33,0,0,1-.27.15,5.53,5.53,0,0,1-1-.09l-.95-.16a3.7,3.7,0,0,0-.94,0,3.2,3.2,0,0,0-1.05.38.22.22,0,0,1-.27,0,.2.2,0,0,1-.07-.23c.33-.71.7-1.47,1.1-2.28s.81-1.63,1.21-2.46l1.16-2.46q.57-1.22,1-2.28c.27-.71.49-1.35.64-1.91A4,4,0,0,0,29.58,26.91Z"/></clipPath><clipPath id="clip-path-4" transform="translate(4.15)"><path class="cls-1" d="M48.64,30.89s0,0,0,0V31c-.07.17-.22.5-.44,1s-.51,1.07-.87,1.71-.76,1.33-1.23,2a16.36,16.36,0,0,1-1.5,1.94,8.85,8.85,0,0,1-1.71,1.46,3.4,3.4,0,0,1-1.86.59,3.82,3.82,0,0,1-2.17-.56,3.19,3.19,0,0,1-1.18-1.48,4.83,4.83,0,0,1-.29-2.09,10,10,0,0,1,.44-2.41,11.13,11.13,0,0,1,1.06-2.41,10.85,10.85,0,0,1,1.57-2.1,7.76,7.76,0,0,1,1.93-1.48,4.55,4.55,0,0,1,2.18-.55,2.26,2.26,0,0,1,1.69.57,2.14,2.14,0,0,1,.58,1.41,4.31,4.31,0,0,1-.35,1.82,6.05,6.05,0,0,1-1.13,1.83,6.65,6.65,0,0,1-1.74,1.41,4.38,4.38,0,0,1-2.18.57A2.42,2.42,0,0,1,40.25,34a4.29,4.29,0,0,0,0,1.07,2,2,0,0,0,.27.88,1.7,1.7,0,0,0,.59.6,1.93,1.93,0,0,0,.95.22,2.56,2.56,0,0,0,1.23-.35,7.62,7.62,0,0,0,1.24-.88,13.81,13.81,0,0,0,1.21-1.21c.39-.45.75-.88,1.07-1.3s.61-.82.86-1.2l.58-.86a.17.17,0,0,1,.13-.08ZM44.53,28.3a2.2,2.2,0,0,0-1.13.33,4.88,4.88,0,0,0-1.06.9,7.3,7.3,0,0,0-.93,1.27,8.19,8.19,0,0,0-.72,1.49,1,1,0,0,0,.25.39.64.64,0,0,0,.45.15,2.13,2.13,0,0,0,1.17-.34,4.6,4.6,0,0,0,1-.84,5.51,5.51,0,0,0,.77-1.09,5.13,5.13,0,0,0,.47-1.08,2.25,2.25,0,0,0,.09-.85A.34.34,0,0,0,44.53,28.3Z"/></clipPath><clipPath id="clip-path-5" transform="translate(4.15)"><path class="cls-1" d="M52.82,26.62a2.31,2.31,0,0,1,1.48.44,2.36,2.36,0,0,1,.76,1.1,3.78,3.78,0,0,1,.18,1.45A5.53,5.53,0,0,1,55,31.1a3.87,3.87,0,0,1-.57,1.19,1.25,1.25,0,0,1-.71.57.2.2,0,0,1-.17,0,.14.14,0,0,1-.09-.12,1.33,1.33,0,0,0-.26-.68,1.91,1.91,0,0,0-.47-.47l-.59-.38a2.9,2.9,0,0,1-.57-.44.2.2,0,0,1-.06-.18.15.15,0,0,1,.11-.13,1.59,1.59,0,0,0,.89-.64,3.07,3.07,0,0,0,.45-1,1.93,1.93,0,0,0,0-1,.52.52,0,0,0-.52-.41,2.18,2.18,0,0,0-.81.17,3.06,3.06,0,0,0-.82.47,2.86,2.86,0,0,0-.65.74,1.94,1.94,0,0,0,0,2,4.79,4.79,0,0,0,.78.87c.32.28.66.55,1,.83a8.92,8.92,0,0,1,1,.93,4.47,4.47,0,0,1,.78,1.22,4,4,0,0,1,.31,1.66,3.68,3.68,0,0,1-.17.94,3,3,0,0,1-.63,1.13,3.78,3.78,0,0,1-1.32.93,6.29,6.29,0,0,1-4.39,0A6.4,6.4,0,0,1,46,38.35a6.16,6.16,0,0,1-1-1.07,3.1,3.1,0,0,1-.46-.79c-.07-.16,0-.25.15-.29a1.82,1.82,0,0,0,1-.64,6.2,6.2,0,0,0,.67-1.07c.19-.38.36-.74.51-1.1a1.68,1.68,0,0,1,.5-.74.17.17,0,0,1,.21,0,.16.16,0,0,1,0,.21,3.37,3.37,0,0,0-.37,1.58,2.16,2.16,0,0,0,1.2,1.92,2.51,2.51,0,0,0,1.11.26,1.46,1.46,0,0,0,.41-.07,1.86,1.86,0,0,0,.49-.21,1.12,1.12,0,0,0,.41-.4,1.15,1.15,0,0,0,.17-.64,1.36,1.36,0,0,0-.45-.87l-1-1.06a10.64,10.64,0,0,1-1-1.23A2.4,2.4,0,0,1,48,30.76a4,4,0,0,1,.29-1.43A4.19,4.19,0,0,1,49.17,28a4.44,4.44,0,0,1,1.5-1A5.62,5.62,0,0,1,52.82,26.62Z"/></clipPath><clipPath id="clip-path-6" transform="translate(4.15)"><path class="cls-1" d="M30.52,16.09a3.46,3.46,0,0,0-1.44,1.06,13.32,13.32,0,0,0-1.5,2.1c-.51.85-1,1.81-1.57,2.89s-1.09,2.22-1.66,3.43a4.27,4.27,0,0,0,.83.23,3.92,3.92,0,0,1,1.23-.93,2.65,2.65,0,0,1,1.15-.27,1.36,1.36,0,0,1,.84.27.84.84,0,0,1,.33.7,1.13,1.13,0,0,1-.22.71,1.45,1.45,0,0,1-.61.42,3.76,3.76,0,0,1-.91.18,10.12,10.12,0,0,1-1.11,0,6.56,6.56,0,0,0-.12.75,8.42,8.42,0,0,0,0,.88,5.88,5.88,0,0,0,.1.93,4.74,4.74,0,0,0,.25.88c.08.25,0,.41-.16.5a5.39,5.39,0,0,0-1.42.86c-.45.38-.82.69-1.09.95a.19.19,0,0,1-.23,0,.22.22,0,0,1-.13-.22,13.51,13.51,0,0,1,.44-3.33,10.17,10.17,0,0,1,.93-2.32l-.31,0a1.55,1.55,0,0,1-.31,0c-.68,1.47-1.37,3-2.07,4.52s-1.46,3-2.23,4.52-1.58,2.86-2.4,4.18a24.61,24.61,0,0,1-2.57,3.47,13.88,13.88,0,0,1-2.8,2.4,6.23,6.23,0,0,1-3,1,.16.16,0,0,1-.18,0,.35.35,0,0,1-.05-.18,7.89,7.89,0,0,0,0-1.54,6.41,6.41,0,0,0-.31-1.58A6.26,6.26,0,0,0,7.54,42a4.34,4.34,0,0,0-1-1.14,3.05,3.05,0,0,1-.69-.75,5.35,5.35,0,0,1-.45-.85,6.82,6.82,0,0,1-.29-.87A5.28,5.28,0,0,1,5,37.69a.2.2,0,0,1,.1-.21.23.23,0,0,1,.24,0,3.73,3.73,0,0,0,1,.35A11.69,11.69,0,0,0,8.45,38a5.16,5.16,0,0,0,2.78-.9,15.26,15.26,0,0,0,2.84-2.38,35.83,35.83,0,0,0,2.86-3.42c1-1.28,1.92-2.63,2.89-4a6.42,6.42,0,0,0-1.08.5c-.3.18-.54.34-.73.48a.2.2,0,0,1-.21,0,.18.18,0,0,1-.11-.18,2.49,2.49,0,0,0-.32-1.44,3.51,3.51,0,0,0-.66-.79.21.21,0,0,1-.09-.24.29.29,0,0,1,.17-.2,6.37,6.37,0,0,1,2.26-.56,11.54,11.54,0,0,1,2.35.12c1.22-1.79,2.44-3.51,3.64-5.14a27.29,27.29,0,0,1,3.56-4.05,21.7,21.7,0,0,0-2.82-.16,11.17,11.17,0,0,0-4,.64A9.6,9.6,0,0,0,19,17.82,9.06,9.06,0,0,0,17.09,20,11.61,11.61,0,0,0,16,22.22a9.74,9.74,0,0,0-.52,1.89,8.07,8.07,0,0,0-.13,1.07.57.57,0,0,1-.42.39,7.07,7.07,0,0,1-.9.24c-.37.08-.77.18-1.21.3a4.89,4.89,0,0,0-1.29.57,4.59,4.59,0,0,0-1.17,1.05,4.74,4.74,0,0,0-.81,1.72.45.45,0,0,1-.21.24.34.34,0,0,1-.31,0,2.2,2.2,0,0,1-.87-1.08,6,6,0,0,1-.47-2,9.67,9.67,0,0,1,1.18-5.28A11.75,11.75,0,0,1,11,18.65a13,13,0,0,1,3.37-2.33,21,21,0,0,1,4.86-1.62,32.16,32.16,0,0,1,6.6-.6c1,0,2.12.05,3.27.16l3.42.35c1.13.12,2.21.22,3.25.3a20.54,20.54,0,0,0,2.8,0,.27.27,0,0,1,.28.19.26.26,0,0,1-.1.33c-.31.26-.62.54-.93.85s-.6.62-.87.94-.51.61-.73.9l-.53.75a.38.38,0,0,1-.62-.05,3.54,3.54,0,0,0-.48-.65,5.38,5.38,0,0,0-.84-.75,6.78,6.78,0,0,0-1.31-.75A10,10,0,0,0,30.52,16.09Z"/></clipPath><clipPath id="clip-path-7" transform="translate(4.15)"><path class="cls-1" d="M69.54,30.25a.22.22,0,0,1,.2.13.24.24,0,0,1,0,.26q-.21.42-.63,1.2c-.29.53-.61,1.11-1,1.74s-.78,1.27-1.23,1.91a20.33,20.33,0,0,1-1.38,1.78,9.55,9.55,0,0,1-1.43,1.32,2.34,2.34,0,0,1-1.33.52,2.61,2.61,0,0,1-1.23-.26,2,2,0,0,1-.75-.66,2.37,2.37,0,0,1-.36-.87,4.61,4.61,0,0,1-.09-.88,4.24,4.24,0,0,1,.4-1.66,16.15,16.15,0,0,1,1-1.9c.37-.65.75-1.29,1.15-1.92s.72-1.19,1-1.68a3.35,3.35,0,0,0,.41-1.19c0-.3-.14-.46-.5-.46a1.81,1.81,0,0,0-1,.33,5.86,5.86,0,0,0-1,.83,12.06,12.06,0,0,0-1,1.1A11,11,0,0,0,59.85,31c-.36.81-.69,1.59-1,2.34a22,22,0,0,0-.72,2.1,12.89,12.89,0,0,0-.37,1.78,3.92,3.92,0,0,0,0,1.34.26.26,0,0,1-.06.29.48.48,0,0,1-.3.15,2.74,2.74,0,0,1-1-.09c-.37-.09-.75-.17-1.14-.23a5,5,0,0,0-1.15,0,2,2,0,0,0-1.11.45c-.09.07-.19.06-.3,0s-.12-.17,0-.22a3.87,3.87,0,0,0,.73-1c.36-.59.77-1.33,1.25-2.23s1-1.92,1.55-3,1.12-2.29,1.68-3.48S59,26.7,59.53,25.56s1-2.17,1.38-3.09.72-1.69,1-2.31a4.13,4.13,0,0,0,.34-1.1.29.29,0,0,1,.09-.21.19.19,0,0,1,.22,0c.22.07.49.16.8.28a2.79,2.79,0,0,0,1,.18,4,4,0,0,0,.84-.09c.29-.06.56-.13.82-.2s.49-.16.71-.25a4.06,4.06,0,0,1,.5-.18.21.21,0,0,1,.26.1.21.21,0,0,1,0,.29A13.3,13.3,0,0,0,66,20.58c-.52.68-1.05,1.44-1.61,2.28s-1.11,1.72-1.67,2.66-1.09,1.88-1.59,2.82q.21-.29.57-.69a5.54,5.54,0,0,1,.87-.77,6,6,0,0,1,1.12-.62A3.65,3.65,0,0,1,65.11,26a2.33,2.33,0,0,1,1.59.43,1.49,1.49,0,0,1,.45,1.13,4.34,4.34,0,0,1-.35,1.6c-.23.6-.5,1.2-.81,1.82s-.63,1.22-.95,1.81a14.47,14.47,0,0,0-.75,1.6,2.59,2.59,0,0,0-.23,1.13c0,.29.23.43.63.43a1.07,1.07,0,0,0,.62-.36c.26-.25.55-.55.86-.91s.63-.77,1-1.22l1-1.28c.29-.41.55-.77.77-1.1s.38-.56.47-.7A.19.19,0,0,1,69.54,30.25Z"/></clipPath><clipPath id="clip-path-8" transform="translate(4.15)"><path class="cls-1" d="M29.08,26.21a.2.2,0,0,1,.09-.22.22.22,0,0,1,.24,0c.21.08.43.19.68.31a1.82,1.82,0,0,0,.88.19,4.19,4.19,0,0,0,1.34-.23c.45-.15.8-.26,1-.32a.22.22,0,0,1,.27.09.18.18,0,0,1,0,.27A10.78,10.78,0,0,0,32.16,28q-.7,1-1.35,2.19a2.5,2.5,0,0,0,.22-.35c.13-.21.31-.48.53-.8s.49-.65.79-1a9.34,9.34,0,0,1,1-1,4.81,4.81,0,0,1,1.14-.78,2.72,2.72,0,0,1,1.23-.3c.69,0,1.13.16,1.33.48a1.7,1.7,0,0,1,.18,1.21,6.72,6.72,0,0,1-.49,1.58c-.25.58-.48,1.1-.7,1.59A7.62,7.62,0,0,0,35.58,32c-.09.32,0,.48.28.48a1.54,1.54,0,0,0,.84-.27,4.43,4.43,0,0,0,.79-.64,5.68,5.68,0,0,0,.62-.72c.18-.24.31-.43.39-.55a.28.28,0,0,1,.24-.13.25.25,0,0,1,.23.15.26.26,0,0,1,0,.27c-.14.26-.34.59-.61,1a13.63,13.63,0,0,1-.89,1.19,5.78,5.78,0,0,1-1.06,1,1.92,1.92,0,0,1-1.14.42,1.08,1.08,0,0,1-.75-.27l-.68-.61a5.84,5.84,0,0,0-.84-.66,2.84,2.84,0,0,0-1.23-.43.21.21,0,0,1-.08-.39,8.37,8.37,0,0,0,1.43-1.16,11.33,11.33,0,0,0,1.21-1.42A4,4,0,0,0,35,28.08c.09-.33,0-.5-.33-.5a1.49,1.49,0,0,0-.84.4A9.42,9.42,0,0,0,32.73,29c-.38.43-.77.91-1.17,1.42s-.76,1-1.1,1.52-.63.94-.89,1.36a7.22,7.22,0,0,0-.52.93,16.82,16.82,0,0,0-.6,2.46,5.4,5.4,0,0,0,0,1.92.29.29,0,0,1-.07.29.32.32,0,0,1-.27.15,5.53,5.53,0,0,1-1-.09l-.95-.16a3.7,3.7,0,0,0-.94,0,3.2,3.2,0,0,0-1.05.38.22.22,0,0,1-.27,0,.2.2,0,0,1-.07-.23c.33-.71.7-1.47,1.1-2.28S25.7,35,26.1,34.21l1.16-2.46q.57-1.21,1-2.28c.27-.71.49-1.35.64-1.91A4,4,0,0,0,29.08,26.21Z"/></clipPath><clipPath id="clip-path-9" transform="translate(4.15)"><path class="cls-1" d="M48.15,30.19a0,0,0,0,1,0,0v.11c-.07.17-.22.5-.44,1s-.51,1.07-.87,1.71-.76,1.33-1.23,2A15.37,15.37,0,0,1,44.13,37a8.29,8.29,0,0,1-1.71,1.46,3.38,3.38,0,0,1-1.86.59,3.82,3.82,0,0,1-2.17-.56A3.11,3.11,0,0,1,37.22,37a4.82,4.82,0,0,1-.3-2.09,10,10,0,0,1,.44-2.41,11.13,11.13,0,0,1,1.06-2.41A10.85,10.85,0,0,1,40,28a7.76,7.76,0,0,1,1.93-1.48A4.59,4.59,0,0,1,44.11,26a2.23,2.23,0,0,1,1.68.57A2.09,2.09,0,0,1,46.37,28,4.31,4.31,0,0,1,46,29.77,6.22,6.22,0,0,1,44.9,31.6,6.87,6.87,0,0,1,43.15,33a4.38,4.38,0,0,1-2.18.57,2.42,2.42,0,0,1-1.22-.28,4.29,4.29,0,0,0,0,1.07,2,2,0,0,0,.27.88,1.72,1.72,0,0,0,.6.6,1.89,1.89,0,0,0,.94.22,2.56,2.56,0,0,0,1.23-.35A7.62,7.62,0,0,0,44,34.84a13.81,13.81,0,0,0,1.21-1.21c.4-.45.75-.88,1.07-1.3s.61-.82.86-1.2l.58-.86a.19.19,0,0,1,.13-.08ZM44,27.6a2.2,2.2,0,0,0-1.13.33,5.13,5.13,0,0,0-1.06.9,7.3,7.3,0,0,0-.93,1.27,8.19,8.19,0,0,0-.72,1.49,1.14,1.14,0,0,0,.25.39.64.64,0,0,0,.45.15,2.13,2.13,0,0,0,1.17-.34,4.6,4.6,0,0,0,1-.84,5.51,5.51,0,0,0,.77-1.09,5.13,5.13,0,0,0,.47-1.08,2.25,2.25,0,0,0,.09-.85A.34.34,0,0,0,44,27.6Z"/></clipPath><clipPath id="clip-path-10" transform="translate(4.15)"><path class="cls-1" d="M52.32,25.92a2.17,2.17,0,0,1,2.24,1.54,3.78,3.78,0,0,1,.18,1.45,6,6,0,0,1-.25,1.49,4.39,4.39,0,0,1-.57,1.19,1.27,1.27,0,0,1-.72.57.18.18,0,0,1-.16,0c-.07,0-.1-.07-.1-.12a1.42,1.42,0,0,0-.25-.68,2.14,2.14,0,0,0-.48-.47l-.59-.38a2.9,2.9,0,0,1-.57-.44.2.2,0,0,1-.06-.18.15.15,0,0,1,.12-.13,1.6,1.6,0,0,0,.88-.64,3.07,3.07,0,0,0,.45-1,1.93,1.93,0,0,0,0-1,.52.52,0,0,0-.52-.41,2.09,2.09,0,0,0-.8.17,3.11,3.11,0,0,0-.83.47,2.86,2.86,0,0,0-.65.74,1.94,1.94,0,0,0,0,2,5.19,5.19,0,0,0,.78.87c.32.28.66.55,1,.83a8.92,8.92,0,0,1,1,.93A4.25,4.25,0,0,1,53.28,34a4,4,0,0,1,.31,1.66,3.29,3.29,0,0,1-.17.94,3,3,0,0,1-.63,1.13,3.78,3.78,0,0,1-1.32.93,6.29,6.29,0,0,1-4.39,0,6.4,6.4,0,0,1-1.61-1,6.16,6.16,0,0,1-1-1.07,3.1,3.1,0,0,1-.46-.79c-.07-.16,0-.25.15-.29a1.82,1.82,0,0,0,1-.64,6.2,6.2,0,0,0,.67-1.07c.19-.38.36-.74.51-1.1a1.76,1.76,0,0,1,.5-.74A.17.17,0,0,1,47,32a.16.16,0,0,1,0,.21,3.37,3.37,0,0,0-.37,1.58,2.16,2.16,0,0,0,1.2,1.92,2.52,2.52,0,0,0,1.12.26,1.46,1.46,0,0,0,.4-.07,1.73,1.73,0,0,0,.49-.21,1.12,1.12,0,0,0,.41-.4,1.07,1.07,0,0,0,.17-.64,1.36,1.36,0,0,0-.45-.87l-1-1.06a10.64,10.64,0,0,1-1-1.23,2.39,2.39,0,0,1-.45-1.38,4,4,0,0,1,.28-1.43,4.19,4.19,0,0,1,.88-1.35,4.44,4.44,0,0,1,1.5-1A5.62,5.62,0,0,1,52.32,25.92Z"/></clipPath><clipPath id="clip-path-11" transform="translate(4.15)"><path class="cls-1" d="M30,15.39a3.46,3.46,0,0,0-1.44,1.06,14,14,0,0,0-1.5,2.1c-.51.85-1,1.81-1.57,2.89s-1.09,2.22-1.66,3.43a4.27,4.27,0,0,0,.83.23,3.92,3.92,0,0,1,1.23-.93,2.65,2.65,0,0,1,1.15-.27,1.41,1.41,0,0,1,.85.27.86.86,0,0,1,.32.7,1.08,1.08,0,0,1-.22.71,1.45,1.45,0,0,1-.61.42,3.76,3.76,0,0,1-.91.18,10.12,10.12,0,0,1-1.11,0,6.56,6.56,0,0,0-.12.75,8.42,8.42,0,0,0,0,.88,5.88,5.88,0,0,0,.1.93,4.74,4.74,0,0,0,.25.88c.08.25,0,.41-.16.5A5.39,5.39,0,0,0,24,31c-.45.38-.81.69-1.09,1a.19.19,0,0,1-.23,0,.22.22,0,0,1-.13-.22A13.51,13.51,0,0,1,23,28.43a10.17,10.17,0,0,1,.93-2.32l-.31,0a1.63,1.63,0,0,1-.31,0c-.68,1.47-1.37,3-2.07,4.52S19.79,33.63,19,35.1s-1.58,2.86-2.4,4.18A24.61,24.61,0,0,1,14,42.75a13.61,13.61,0,0,1-2.8,2.4,6.23,6.23,0,0,1-3,1,.16.16,0,0,1-.18-.05A.35.35,0,0,1,8,45.9a7.89,7.89,0,0,0,0-1.54,6.41,6.41,0,0,0-.31-1.58A6.26,6.26,0,0,0,7,41.34a4.34,4.34,0,0,0-1-1.14,3.05,3.05,0,0,1-.69-.75,5.35,5.35,0,0,1-.45-.85,6.82,6.82,0,0,1-.29-.87A5.09,5.09,0,0,1,4.51,37a.18.18,0,0,1,.09-.21.23.23,0,0,1,.24,0,3.85,3.85,0,0,0,1,.35A11.77,11.77,0,0,0,8,37.25a5.16,5.16,0,0,0,2.78-.9A15,15,0,0,0,13.57,34a35.83,35.83,0,0,0,2.86-3.42c1-1.28,1.92-2.63,2.89-4a6.82,6.82,0,0,0-1.08.5c-.3.18-.54.34-.73.48a.2.2,0,0,1-.21,0,.17.17,0,0,1-.1-.18,2.48,2.48,0,0,0-.33-1.44,3.51,3.51,0,0,0-.66-.79.24.24,0,0,1-.09-.24.29.29,0,0,1,.17-.2,6.37,6.37,0,0,1,2.27-.56,11.48,11.48,0,0,1,2.34.12c1.23-1.79,2.44-3.51,3.64-5.14a27.88,27.88,0,0,1,3.56-4,21.7,21.7,0,0,0-2.82-.16,11.07,11.07,0,0,0-4,.64,9.53,9.53,0,0,0-2.83,1.61,9.06,9.06,0,0,0-1.86,2.15,12.21,12.21,0,0,0-1.1,2.25A10.51,10.51,0,0,0,15,23.41a8.07,8.07,0,0,0-.13,1.07.57.57,0,0,1-.42.39,7.07,7.07,0,0,1-.9.24c-.36.08-.77.18-1.21.3A4.89,4.89,0,0,0,11,26a4.38,4.38,0,0,0-2,2.77.45.45,0,0,1-.21.24.34.34,0,0,1-.31,0,2.2,2.2,0,0,1-.87-1.08,5.77,5.77,0,0,1-.46-2,9.54,9.54,0,0,1,1.17-5.28A11.75,11.75,0,0,1,10.45,18a13,13,0,0,1,3.37-2.33A20.88,20.88,0,0,1,18.69,14a32.06,32.06,0,0,1,6.59-.6c1,0,2.12,0,3.27.16l3.42.35c1.13.12,2.22.22,3.25.3a20.54,20.54,0,0,0,2.8,0,.27.27,0,0,1,.28.19.25.25,0,0,1-.1.33c-.31.26-.62.54-.93.85s-.6.62-.87.94-.51.61-.72.9l-.54.75a.38.38,0,0,1-.62-.05,3.54,3.54,0,0,0-.48-.65,5.38,5.38,0,0,0-.84-.75A6.78,6.78,0,0,0,31.89,16,10,10,0,0,0,30,15.39Z"/></clipPath><clipPath id="clip-path-12" transform="translate(4.15)"><path class="cls-1" d="M69,29.55a.22.22,0,0,1,.2.13.21.21,0,0,1,0,.26c-.13.28-.35.68-.63,1.2s-.61,1.11-1,1.74-.78,1.27-1.23,1.91A18.57,18.57,0,0,1,65,36.57a10,10,0,0,1-1.42,1.32,2.37,2.37,0,0,1-1.34.52A2.61,2.61,0,0,1,61,38.15a2,2,0,0,1-.75-.66,2.37,2.37,0,0,1-.36-.87,4.61,4.61,0,0,1-.09-.88,4.24,4.24,0,0,1,.4-1.66,17.85,17.85,0,0,1,1-1.9c.37-.65.75-1.29,1.15-1.92s.72-1.19,1-1.68a3.35,3.35,0,0,0,.41-1.19c0-.3-.14-.46-.5-.46a1.84,1.84,0,0,0-1,.33,6.66,6.66,0,0,0-1,.83,12.06,12.06,0,0,0-1,1.1,11,11,0,0,0-.83,1.11c-.36.81-.69,1.59-1,2.34s-.53,1.46-.72,2.1a12.89,12.89,0,0,0-.37,1.78,3.92,3.92,0,0,0,0,1.34.26.26,0,0,1-.06.29.48.48,0,0,1-.3.15,2.74,2.74,0,0,1-1-.09c-.37-.09-.75-.17-1.14-.23a5,5,0,0,0-1.15,0,2,2,0,0,0-1.11.45c-.09.07-.19.06-.3,0s-.12-.17,0-.22a3.87,3.87,0,0,0,.73-1c.36-.59.77-1.33,1.25-2.23s1-1.92,1.55-3.05,1.12-2.29,1.68-3.48S58.5,26,59,24.86s1-2.17,1.38-3.09.72-1.69,1-2.31a4.13,4.13,0,0,0,.34-1.1.29.29,0,0,1,.09-.21.19.19,0,0,1,.22,0c.22.07.49.16.8.28a2.79,2.79,0,0,0,1,.18,4,4,0,0,0,.84-.09c.29-.06.56-.13.82-.2s.49-.16.71-.25a3.59,3.59,0,0,1,.51-.18A.21.21,0,0,1,67,18a.23.23,0,0,1,0,.29,13.3,13.3,0,0,0-1.4,1.62c-.52.68-1.05,1.44-1.61,2.28s-1.1,1.72-1.67,2.66-1.09,1.88-1.59,2.82q.21-.29.57-.69a5.54,5.54,0,0,1,.87-.77,6.09,6.09,0,0,1,1.13-.62,3.56,3.56,0,0,1,1.37-.26,2.33,2.33,0,0,1,1.59.43,1.49,1.49,0,0,1,.45,1.13,4.34,4.34,0,0,1-.35,1.6c-.23.6-.5,1.2-.81,1.82s-.63,1.22-.95,1.81a14.47,14.47,0,0,0-.75,1.6,2.59,2.59,0,0,0-.23,1.13c0,.29.24.43.63.43a1.09,1.09,0,0,0,.63-.36c.25-.25.54-.55.85-.91s.63-.77,1-1.22l1-1.28c.29-.41.55-.77.77-1.1s.38-.56.47-.7A.19.19,0,0,1,69,29.55Z"/></clipPath><clipPath id="clip-path-13" transform="translate(4.15)"><path class="cls-1" d="M28.58,25.51a.2.2,0,0,1,.09-.22.22.22,0,0,1,.24,0c.21.08.44.19.68.31a1.82,1.82,0,0,0,.88.19,4.15,4.15,0,0,0,1.34-.23c.45-.15.8-.26,1-.32a.22.22,0,0,1,.27.09.17.17,0,0,1,0,.27,11.32,11.32,0,0,0-1.45,1.74q-.7,1-1.35,2.19a2.5,2.5,0,0,0,.22-.35c.13-.21.31-.48.53-.8s.49-.65.79-1a10.38,10.38,0,0,1,1-1A4.81,4.81,0,0,1,34,25.55a2.72,2.72,0,0,1,1.23-.3c.69,0,1.13.16,1.33.48a1.7,1.7,0,0,1,.18,1.21,6.72,6.72,0,0,1-.49,1.58c-.25.58-.48,1.1-.7,1.59a7.62,7.62,0,0,0-.45,1.21c-.09.32,0,.48.28.48a1.54,1.54,0,0,0,.84-.27,4.43,4.43,0,0,0,.79-.64,5.79,5.79,0,0,0,.63-.72l.38-.55a.28.28,0,0,1,.24-.13.25.25,0,0,1,.23.15.26.26,0,0,1,0,.27c-.14.26-.34.59-.61,1A13.63,13.63,0,0,1,37,32.1a5.78,5.78,0,0,1-1.06,1,1.92,1.92,0,0,1-1.14.42,1.08,1.08,0,0,1-.75-.27l-.68-.61A5.84,5.84,0,0,0,32.5,32a2.84,2.84,0,0,0-1.23-.43.21.21,0,0,1-.08-.39A8.37,8.37,0,0,0,32.62,30a11.33,11.33,0,0,0,1.21-1.42,4,4,0,0,0,.64-1.19c.09-.33,0-.5-.32-.5a1.49,1.49,0,0,0-.85.4,9.42,9.42,0,0,0-1.07,1c-.38.43-.77.91-1.17,1.42s-.76,1-1.1,1.52-.63.94-.89,1.36a7.22,7.22,0,0,0-.52.93A16.71,16.71,0,0,0,28,36a5.43,5.43,0,0,0,0,1.92.31.31,0,0,1-.06.29.35.35,0,0,1-.28.15,5.53,5.53,0,0,1-1-.09l-.95-.16a3.7,3.7,0,0,0-.94,0,3.2,3.2,0,0,0-1.05.38.23.23,0,0,1-.27,0,.2.2,0,0,1-.07-.23c.33-.71.7-1.47,1.1-2.28s.81-1.63,1.21-2.46.78-1.65,1.16-2.46.71-1.57,1-2.28.49-1.35.65-1.91A4.16,4.16,0,0,0,28.58,25.51Z"/></clipPath><clipPath id="clip-path-14" transform="translate(4.15)"><path class="cls-1" d="M47.65,29.49a0,0,0,0,1,0,0v.11c-.07.17-.21.5-.44,1s-.51,1.07-.87,1.71-.76,1.33-1.23,2a15.37,15.37,0,0,1-1.5,1.94,8.29,8.29,0,0,1-1.71,1.46,3.38,3.38,0,0,1-1.86.59,3.76,3.76,0,0,1-2.16-.56,3.07,3.07,0,0,1-1.18-1.48,5,5,0,0,1-.3-2.09,10,10,0,0,1,.44-2.41,11.13,11.13,0,0,1,1.06-2.41,10.85,10.85,0,0,1,1.57-2.1,7.76,7.76,0,0,1,1.93-1.48,4.62,4.62,0,0,1,2.19-.55,2.22,2.22,0,0,1,1.68.57,2.09,2.09,0,0,1,.58,1.41,4.31,4.31,0,0,1-.35,1.82A6.22,6.22,0,0,1,44.4,30.9a6.87,6.87,0,0,1-1.75,1.41,4.38,4.38,0,0,1-2.18.57,2.42,2.42,0,0,1-1.22-.28,4.29,4.29,0,0,0,0,1.07,2,2,0,0,0,.27.88,1.72,1.72,0,0,0,.6.6,1.89,1.89,0,0,0,.94.22A2.56,2.56,0,0,0,42.27,35a7.69,7.69,0,0,0,1.25-.88,15.27,15.27,0,0,0,1.2-1.21c.4-.45.76-.88,1.07-1.3s.61-.82.86-1.2l.58-.86a.19.19,0,0,1,.13-.08ZM43.53,26.9a2.2,2.2,0,0,0-1.13.33,5.13,5.13,0,0,0-1.06.9,7.3,7.3,0,0,0-.93,1.27,7.54,7.54,0,0,0-.71,1.49,1,1,0,0,0,.24.39.64.64,0,0,0,.45.15,2.13,2.13,0,0,0,1.17-.34,4.6,4.6,0,0,0,1-.84,5.51,5.51,0,0,0,.77-1.09,4.66,4.66,0,0,0,.47-1.08,2.07,2.07,0,0,0,.09-.85A.33.33,0,0,0,43.53,26.9Z"/></clipPath><clipPath id="clip-path-15" transform="translate(4.15)"><path class="cls-1" d="M51.82,25.22a2.17,2.17,0,0,1,2.24,1.54,4,4,0,0,1,.19,1.45A6.45,6.45,0,0,1,54,29.7a4.39,4.39,0,0,1-.57,1.19,1.27,1.27,0,0,1-.72.57.18.18,0,0,1-.16,0,.14.14,0,0,1-.09-.12,1.54,1.54,0,0,0-.26-.68,2.14,2.14,0,0,0-.48-.47c-.18-.13-.38-.25-.59-.38a2.9,2.9,0,0,1-.57-.44.2.2,0,0,1-.06-.18.15.15,0,0,1,.12-.13,1.6,1.6,0,0,0,.88-.64,3.07,3.07,0,0,0,.45-1,1.93,1.93,0,0,0,0-1,.52.52,0,0,0-.52-.41,2.09,2.09,0,0,0-.8.17,3.11,3.11,0,0,0-.83.47,2.86,2.86,0,0,0-.65.74,1.94,1.94,0,0,0,0,2,4.86,4.86,0,0,0,.79.87c.31.28.65.55,1,.83A8.92,8.92,0,0,1,52,32a4.25,4.25,0,0,1,.78,1.22,4,4,0,0,1,.31,1.66,3.29,3.29,0,0,1-.17.94A3,3,0,0,1,52.29,37a3.78,3.78,0,0,1-1.32.93,6.29,6.29,0,0,1-4.39,0A6.4,6.4,0,0,1,45,37a6.16,6.16,0,0,1-1-1.07,3.45,3.45,0,0,1-.46-.79c-.07-.16,0-.25.15-.29a1.82,1.82,0,0,0,1-.64,6.25,6.25,0,0,0,.68-1.07c.19-.38.35-.74.5-1.1a1.77,1.77,0,0,1,.51-.74.15.15,0,0,1,.2,0,.16.16,0,0,1,0,.21A3.37,3.37,0,0,0,46.14,33a2.29,2.29,0,0,0,.36,1.18,2.21,2.21,0,0,0,.84.74,2.52,2.52,0,0,0,1.12.26,1.46,1.46,0,0,0,.4-.07,1.73,1.73,0,0,0,.49-.21,1.22,1.22,0,0,0,.42-.4,1.15,1.15,0,0,0,.16-.64,1.36,1.36,0,0,0-.45-.87l-1-1.06a10.64,10.64,0,0,1-1-1.23A2.39,2.39,0,0,1,47,29.36a3.77,3.77,0,0,1,.29-1.43,3.89,3.89,0,0,1,.88-1.35,4.3,4.3,0,0,1,1.49-1A5.66,5.66,0,0,1,51.82,25.22Z"/></clipPath><clipPath id="clip-path-16" transform="translate(4.15)"><path class="cls-1" d="M29.52,14.69a3.46,3.46,0,0,0-1.44,1.06,14,14,0,0,0-1.5,2.1c-.51.85-1,1.81-1.57,2.89S23.92,23,23.35,24.17a4.27,4.27,0,0,0,.83.23,3.92,3.92,0,0,1,1.23-.93,2.66,2.66,0,0,1,1.16-.27,1.4,1.4,0,0,1,.84.27.86.86,0,0,1,.32.7,1.08,1.08,0,0,1-.22.71,1.45,1.45,0,0,1-.61.42,3.77,3.77,0,0,1-.9.18,10.34,10.34,0,0,1-1.12,0,6.56,6.56,0,0,0-.12.75,8.42,8.42,0,0,0,0,.88,5.88,5.88,0,0,0,.1.93,4.74,4.74,0,0,0,.25.88c.09.25,0,.41-.16.5a5.39,5.39,0,0,0-1.42.86c-.45.38-.81.69-1.09.95a.19.19,0,0,1-.23,0,.22.22,0,0,1-.13-.22,13.51,13.51,0,0,1,.44-3.33,10.17,10.17,0,0,1,.93-2.32l-.31,0a1.63,1.63,0,0,1-.31,0l-2.07,4.52c-.71,1.55-1.45,3.05-2.23,4.52s-1.58,2.86-2.4,4.18a23.86,23.86,0,0,1-2.57,3.47,13.61,13.61,0,0,1-2.8,2.4,6.23,6.23,0,0,1-3,1,.17.17,0,0,1-.19,0,.35.35,0,0,1,0-.18,8.72,8.72,0,0,0,0-1.54,6.92,6.92,0,0,0-.32-1.58,6.26,6.26,0,0,0-.66-1.44,4.34,4.34,0,0,0-1-1.14,3.26,3.26,0,0,1-.69-.75,5.35,5.35,0,0,1-.45-.85A5.47,5.47,0,0,1,4.14,37,4.13,4.13,0,0,1,4,36.29a.18.18,0,0,1,.09-.21.23.23,0,0,1,.24,0,3.85,3.85,0,0,0,1,.35,11.77,11.77,0,0,0,2.06.14,5.19,5.19,0,0,0,2.79-.9,15.22,15.22,0,0,0,2.83-2.38,35.83,35.83,0,0,0,2.86-3.42c1-1.28,1.92-2.63,2.89-4a6.3,6.3,0,0,0-1.07.5,8.09,8.09,0,0,0-.74.48.2.2,0,0,1-.21,0,.17.17,0,0,1-.1-.18,2.48,2.48,0,0,0-.33-1.44,3.51,3.51,0,0,0-.66-.79.24.24,0,0,1-.09-.24.29.29,0,0,1,.17-.2,6.42,6.42,0,0,1,2.27-.56,11.48,11.48,0,0,1,2.34.12C21.63,21.73,22.84,20,24,18.38a27.88,27.88,0,0,1,3.56-4,21.7,21.7,0,0,0-2.82-.16,11.07,11.07,0,0,0-4,.64A9.53,9.53,0,0,0,18,16.42a9.3,9.3,0,0,0-1.86,2.15A12.21,12.21,0,0,0,15,20.82a10.51,10.51,0,0,0-.52,1.89,8.07,8.07,0,0,0-.13,1.07c0,.17-.17.3-.41.39a7.78,7.78,0,0,1-.91.24q-.54.12-1.2.3a4.81,4.81,0,0,0-1.3.57,4.38,4.38,0,0,0-2,2.77.41.41,0,0,1-.21.24.34.34,0,0,1-.31,0,2.2,2.2,0,0,1-.87-1.08,5.77,5.77,0,0,1-.46-2,9.29,9.29,0,0,1,.17-2.52,9.07,9.07,0,0,1,1-2.76A11.7,11.7,0,0,1,10,17.25a13,13,0,0,1,3.37-2.33,21,21,0,0,1,4.87-1.62,32.06,32.06,0,0,1,6.59-.6c1,0,2.13.05,3.27.16l3.42.35c1.13.12,2.22.22,3.25.3a20.54,20.54,0,0,0,2.8,0,.29.29,0,0,1,.29.19.26.26,0,0,1-.11.33c-.31.26-.62.54-.93.85s-.6.62-.87.94-.51.61-.72.9-.4.55-.53.75a.36.36,0,0,1-.33.14.34.34,0,0,1-.3-.19,3.54,3.54,0,0,0-.48-.65,5.38,5.38,0,0,0-.84-.75,7,7,0,0,0-1.3-.75A10.35,10.35,0,0,0,29.52,14.69Z"/></clipPath><clipPath id="clip-path-17" transform="translate(4.15)"><path class="cls-1" d="M68.54,28.85a.22.22,0,0,1,.2.13.21.21,0,0,1,0,.26q-.19.42-.63,1.2c-.28.53-.61,1.11-1,1.74s-.79,1.27-1.23,1.91a18.62,18.62,0,0,1-1.39,1.78,9.51,9.51,0,0,1-1.42,1.32,2.37,2.37,0,0,1-1.34.52,2.61,2.61,0,0,1-1.23-.26,2,2,0,0,1-.75-.66,2.37,2.37,0,0,1-.36-.87,4.61,4.61,0,0,1-.09-.88,4.24,4.24,0,0,1,.4-1.66,20,20,0,0,1,1-1.9c.37-.65.75-1.29,1.15-1.92s.72-1.19,1-1.68a3.63,3.63,0,0,0,.42-1.19c0-.3-.15-.46-.51-.46a1.84,1.84,0,0,0-1,.33,6.66,6.66,0,0,0-1,.83,12.06,12.06,0,0,0-1,1.1,12.74,12.74,0,0,0-.83,1.11c-.36.81-.69,1.59-1,2.34a21.73,21.73,0,0,0-.71,2.1,11.68,11.68,0,0,0-.38,1.78,3.66,3.66,0,0,0,0,1.34.29.29,0,0,1-.07.29.48.48,0,0,1-.3.15,2.76,2.76,0,0,1-1-.09c-.37-.09-.75-.17-1.14-.23a4.93,4.93,0,0,0-1.15-.05,2,2,0,0,0-1.11.45c-.09.07-.19.06-.3,0s-.12-.17,0-.22a3.8,3.8,0,0,0,.74-1c.35-.59.76-1.33,1.24-2.23s1-1.92,1.55-3.05,1.12-2.29,1.69-3.48,1.1-2.35,1.63-3.49,1-2.17,1.38-3.09.72-1.69,1-2.31a3.75,3.75,0,0,0,.34-1.1.29.29,0,0,1,.09-.21.19.19,0,0,1,.22,0c.22.07.49.16.8.28a2.79,2.79,0,0,0,1,.18,4,4,0,0,0,.84-.09c.29-.06.56-.13.82-.2a7.24,7.24,0,0,0,.71-.25,4.08,4.08,0,0,1,.51-.18.21.21,0,0,1,.26.1.22.22,0,0,1,0,.29A14.23,14.23,0,0,0,65,19.18c-.52.68-1.05,1.44-1.6,2.28s-1.11,1.72-1.67,2.66-1.1,1.88-1.6,2.82q.21-.29.57-.69a5.54,5.54,0,0,1,.87-.77,6.09,6.09,0,0,1,1.13-.62,3.56,3.56,0,0,1,1.37-.26A2.33,2.33,0,0,1,65.7,25a1.5,1.5,0,0,1,.46,1.13,4.55,4.55,0,0,1-.35,1.6c-.24.6-.51,1.2-.82,1.82s-.63,1.22-.95,1.81a14.47,14.47,0,0,0-.75,1.6,2.59,2.59,0,0,0-.23,1.13c0,.29.24.43.63.43a1.09,1.09,0,0,0,.63-.36c.26-.25.54-.55.85-.91s.64-.77,1-1.22l1-1.28c.29-.41.55-.77.77-1.1s.38-.56.47-.7A.19.19,0,0,1,68.54,28.85Z"/></clipPath><clipPath id="clip-path-18" transform="translate(4.15)"><path class="cls-1" d="M28.08,24.81a.2.2,0,0,1,.09-.22.23.23,0,0,1,.25,0c.2.08.43.19.67.31a1.82,1.82,0,0,0,.88.19,4.25,4.25,0,0,0,1.35-.23c.44-.15.79-.26,1-.32a.21.21,0,0,1,.27.09.17.17,0,0,1,0,.27,11.32,11.32,0,0,0-1.45,1.74q-.7,1-1.35,2.19a2.5,2.5,0,0,0,.22-.35c.13-.21.31-.48.53-.8s.49-.65.79-1a10.38,10.38,0,0,1,1-1,4.81,4.81,0,0,1,1.14-.78,2.72,2.72,0,0,1,1.23-.3c.69,0,1.13.16,1.33.48a1.7,1.7,0,0,1,.18,1.21,6.28,6.28,0,0,1-.49,1.58c-.25.58-.48,1.1-.7,1.59a10.31,10.31,0,0,0-.45,1.21c-.09.32,0,.48.28.48a1.6,1.6,0,0,0,.85-.27,5.27,5.27,0,0,0,.79-.64,6.62,6.62,0,0,0,.62-.72l.39-.55a.26.26,0,0,1,.23-.13.25.25,0,0,1,.23.15.26.26,0,0,1,0,.27c-.14.26-.34.59-.61,1a11.87,11.87,0,0,1-.89,1.19,5.78,5.78,0,0,1-1.06,1,1.92,1.92,0,0,1-1.14.42,1.08,1.08,0,0,1-.75-.27l-.68-.61a5.84,5.84,0,0,0-.84-.66,2.84,2.84,0,0,0-1.23-.43.21.21,0,0,1-.08-.39,8.37,8.37,0,0,0,1.43-1.16,12.39,12.39,0,0,0,1.22-1.42A4,4,0,0,0,34,26.68c.1-.33,0-.5-.32-.5a1.44,1.44,0,0,0-.84.4,8.68,8.68,0,0,0-1.08,1.05c-.38.43-.77.91-1.17,1.42s-.76,1-1.1,1.52-.63.94-.89,1.36a7.22,7.22,0,0,0-.52.93,18.08,18.08,0,0,0-.59,2.46,5.67,5.67,0,0,0,0,1.92.29.29,0,0,1-.06.29.35.35,0,0,1-.28.15,5.53,5.53,0,0,1-1-.09l-.94-.16a3.78,3.78,0,0,0-.95,0,3.2,3.2,0,0,0-1.05.38.23.23,0,0,1-.27,0,.2.2,0,0,1-.07-.23q.5-1.06,1.11-2.28l1.2-2.46q.6-1.25,1.17-2.46c.37-.81.7-1.57,1-2.28s.49-1.35.65-1.91A4.16,4.16,0,0,0,28.08,24.81Z"/></clipPath><clipPath id="clip-path-19" transform="translate(4.15)"><path class="cls-1" d="M47.15,28.79l0,0v.11c-.07.17-.21.5-.44,1s-.51,1.07-.86,1.71-.77,1.33-1.23,2a16.42,16.42,0,0,1-1.51,1.94,8.29,8.29,0,0,1-1.71,1.46,3.38,3.38,0,0,1-1.86.59,3.76,3.76,0,0,1-2.16-.56,3.07,3.07,0,0,1-1.18-1.48,5,5,0,0,1-.3-2.09,10,10,0,0,1,.44-2.41,11.13,11.13,0,0,1,1.06-2.41A10.85,10.85,0,0,1,39,26.6a8,8,0,0,1,1.93-1.48,4.62,4.62,0,0,1,2.19-.55,2.22,2.22,0,0,1,1.68.57,2.09,2.09,0,0,1,.58,1.41A4.31,4.31,0,0,1,45,28.37,6.22,6.22,0,0,1,43.9,30.2a6.7,6.7,0,0,1-1.75,1.41,4.35,4.35,0,0,1-2.18.57,2.36,2.36,0,0,1-1.21-.28,4.31,4.31,0,0,0,0,1.07,2.17,2.17,0,0,0,.27.88,1.72,1.72,0,0,0,.6.6,1.89,1.89,0,0,0,.94.22,2.56,2.56,0,0,0,1.23-.35A7.69,7.69,0,0,0,43,33.44a15.27,15.27,0,0,0,1.2-1.21c.4-.45.76-.88,1.08-1.3s.6-.82.85-1.2l.58-.86c.06-.06.1-.08.13-.08ZM43,26.2a2.2,2.2,0,0,0-1.13.33,5.13,5.13,0,0,0-1.06.9,7.3,7.3,0,0,0-.93,1.27,8.14,8.14,0,0,0-.71,1.49,1,1,0,0,0,.24.39.67.67,0,0,0,.46.15,2.12,2.12,0,0,0,1.16-.34,4.38,4.38,0,0,0,1-.84,6,6,0,0,0,.78-1.09,5.06,5.06,0,0,0,.46-1.08,1.91,1.91,0,0,0,.09-.85A.33.33,0,0,0,43,26.2Z"/></clipPath><clipPath id="clip-path-20" transform="translate(4.15)"><path class="cls-1" d="M51.33,24.52A2.28,2.28,0,0,1,52.8,25a2.38,2.38,0,0,1,.77,1.1,4.22,4.22,0,0,1,.18,1.45A6.45,6.45,0,0,1,53.49,29a4.39,4.39,0,0,1-.57,1.19,1.28,1.28,0,0,1-.71.57.2.2,0,0,1-.17,0,.14.14,0,0,1-.09-.12,1.43,1.43,0,0,0-.26-.68,2.14,2.14,0,0,0-.48-.47c-.18-.13-.38-.25-.58-.38a2.42,2.42,0,0,1-.57-.44.19.19,0,0,1-.07-.18.15.15,0,0,1,.12-.13,1.6,1.6,0,0,0,.88-.64,3.07,3.07,0,0,0,.45-1,1.93,1.93,0,0,0,0-1,.52.52,0,0,0-.52-.41,2.09,2.09,0,0,0-.8.17,3.11,3.11,0,0,0-.83.47,2.86,2.86,0,0,0-.65.74,1.83,1.83,0,0,0-.26.95,1.9,1.9,0,0,0,.31,1.07,4.86,4.86,0,0,0,.79.87c.31.28.65.55,1,.83a8.92,8.92,0,0,1,1,.93,4.25,4.25,0,0,1,.78,1.22,4,4,0,0,1,.31,1.66,3.59,3.59,0,0,1-.16.94,3.15,3.15,0,0,1-.64,1.13,3.78,3.78,0,0,1-1.32.93,6.29,6.29,0,0,1-4.39,0,6.4,6.4,0,0,1-1.61-1,5.74,5.74,0,0,1-1-1.07,3.23,3.23,0,0,1-.47-.79c-.07-.16,0-.25.15-.29a1.82,1.82,0,0,0,1-.64,6.25,6.25,0,0,0,.68-1.07c.19-.38.35-.74.5-1.1a1.77,1.77,0,0,1,.51-.74.15.15,0,0,1,.2,0,.18.18,0,0,1,.06.21,3.27,3.27,0,0,0-.38,1.58A2.38,2.38,0,0,0,46,33.52a2.21,2.21,0,0,0,.84.74,2.52,2.52,0,0,0,1.12.26,1.4,1.4,0,0,0,.4-.07,1.73,1.73,0,0,0,.49-.21,1.11,1.11,0,0,0,.58-1,1.36,1.36,0,0,0-.45-.87l-1-1.06A10.64,10.64,0,0,1,47,30a2.39,2.39,0,0,1-.45-1.38,3.77,3.77,0,0,1,.29-1.43,3.89,3.89,0,0,1,.88-1.35,4.3,4.3,0,0,1,1.49-1A5.67,5.67,0,0,1,51.33,24.52Z"/></clipPath><clipPath id="clip-path-21" transform="translate(4.15)"><path class="cls-1" d="M29,14a3.46,3.46,0,0,0-1.44,1.06,14,14,0,0,0-1.5,2.1c-.51.85-1,1.81-1.57,2.89s-1.09,2.22-1.66,3.43a4.27,4.27,0,0,0,.83.23,3.92,3.92,0,0,1,1.23-.93,2.69,2.69,0,0,1,1.16-.27,1.4,1.4,0,0,1,.84.27.86.86,0,0,1,.32.7,1.08,1.08,0,0,1-.22.71,1.45,1.45,0,0,1-.61.42,3.77,3.77,0,0,1-.9.18,10.34,10.34,0,0,1-1.12,0,5,5,0,0,0-.11.75,6.31,6.31,0,0,0,0,.88,5.88,5.88,0,0,0,.1.93,5.65,5.65,0,0,0,.25.88c.09.25,0,.41-.16.5a5.39,5.39,0,0,0-1.42.86c-.45.38-.81.69-1.09.95a.18.18,0,0,1-.23,0,.22.22,0,0,1-.13-.22A13.51,13.51,0,0,1,22,27a10.17,10.17,0,0,1,.93-2.32l-.31,0a1.63,1.63,0,0,1-.31,0l-2.07,4.52c-.71,1.55-1.45,3-2.23,4.52s-1.57,2.86-2.39,4.18A23.89,23.89,0,0,1,13,41.35a13.61,13.61,0,0,1-2.8,2.4,6.23,6.23,0,0,1-3,1c-.09,0-.15,0-.18,0A.28.28,0,0,1,7,44.5,7.86,7.86,0,0,0,7,43a7.49,7.49,0,0,0-.31-1.58,7.24,7.24,0,0,0-.66-1.44,4.57,4.57,0,0,0-1-1.14,3.21,3.21,0,0,1-.68-.75,4.71,4.71,0,0,1-.46-.85,6.72,6.72,0,0,1-.28-.87,4.13,4.13,0,0,1-.13-.74.18.18,0,0,1,.09-.21.23.23,0,0,1,.24,0,3.85,3.85,0,0,0,1,.35A11.77,11.77,0,0,0,7,35.85,5.19,5.19,0,0,0,9.74,35a15.22,15.22,0,0,0,2.83-2.38,34.41,34.41,0,0,0,2.86-3.42c1-1.28,1.92-2.63,2.89-4a6.3,6.3,0,0,0-1.07.5,8.09,8.09,0,0,0-.74.48.2.2,0,0,1-.21,0,.17.17,0,0,1-.1-.18,2.41,2.41,0,0,0-.33-1.44,3.51,3.51,0,0,0-.66-.79.24.24,0,0,1-.09-.24.31.31,0,0,1,.17-.2,6.42,6.42,0,0,1,2.27-.56,11.45,11.45,0,0,1,2.34.12c1.23-1.79,2.44-3.51,3.64-5.14a27.88,27.88,0,0,1,3.56-4,21.7,21.7,0,0,0-2.82-.16,11.11,11.11,0,0,0-4,.64,9.53,9.53,0,0,0-2.83,1.61,9.3,9.3,0,0,0-1.86,2.15,12.21,12.21,0,0,0-1.1,2.25A10.51,10.51,0,0,0,14,22a8.07,8.07,0,0,0-.13,1.07c0,.17-.17.3-.41.39a7.78,7.78,0,0,1-.91.24q-.54.12-1.2.3a5,5,0,0,0-1.3.57,4.48,4.48,0,0,0-2,2.77.38.38,0,0,1-.21.24.34.34,0,0,1-.31,0,2.2,2.2,0,0,1-.87-1.08,5.77,5.77,0,0,1-.46-2,9.67,9.67,0,0,1,1.18-5.28,11.7,11.7,0,0,1,2.08-2.71,13,13,0,0,1,3.37-2.33,21,21,0,0,1,4.87-1.62,32.12,32.12,0,0,1,6.59-.6c1,0,2.13.05,3.27.16l3.42.35c1.13.12,2.22.22,3.25.3a20.54,20.54,0,0,0,2.8,0,.29.29,0,0,1,.29.19.26.26,0,0,1-.11.33c-.31.26-.62.54-.93.85s-.6.62-.87.94-.51.61-.72.9-.4.55-.53.75a.36.36,0,0,1-.33.14.31.31,0,0,1-.29-.19,4.82,4.82,0,0,0-.48-.65,6,6,0,0,0-.85-.75,7,7,0,0,0-1.3-.75A10.35,10.35,0,0,0,29,14Z"/></clipPath><clipPath id="clip-path-22" transform="translate(4.15)"><path class="cls-1" d="M68,28.15a.24.24,0,0,1,.21.13.24.24,0,0,1,0,.26c-.14.28-.35.68-.64,1.2s-.61,1.11-1,1.74-.78,1.27-1.23,1.91A18.62,18.62,0,0,1,64,35.17a9.51,9.51,0,0,1-1.42,1.32,2.37,2.37,0,0,1-1.34.52A2.61,2.61,0,0,1,60,36.75a2,2,0,0,1-.75-.66,2.37,2.37,0,0,1-.36-.87,4.61,4.61,0,0,1-.09-.88,4.24,4.24,0,0,1,.4-1.66,20,20,0,0,1,1-1.9c.37-.65.75-1.29,1.15-1.92s.72-1.19,1-1.68A3.63,3.63,0,0,0,62.72,26c0-.3-.15-.46-.51-.46a1.84,1.84,0,0,0-1,.33,6.66,6.66,0,0,0-1,.83,12.06,12.06,0,0,0-1,1.1,12.74,12.74,0,0,0-.83,1.11c-.36.81-.69,1.59-1,2.34a21.73,21.73,0,0,0-.71,2.1,13,13,0,0,0-.38,1.78,3.66,3.66,0,0,0,0,1.34.29.29,0,0,1-.07.29.48.48,0,0,1-.3.15,2.71,2.71,0,0,1-1-.09c-.38-.09-.76-.17-1.14-.23a5,5,0,0,0-1.16,0,2,2,0,0,0-1.11.45c-.09.07-.19.06-.3,0s-.12-.17,0-.22a3.8,3.8,0,0,0,.74-1c.35-.59.77-1.33,1.24-2.23s1-1.92,1.55-3S55.84,28.14,56.4,27,57.5,24.6,58,23.46s1-2.17,1.38-3.09.72-1.69,1-2.31a3.75,3.75,0,0,0,.34-1.1.29.29,0,0,1,.09-.21.19.19,0,0,1,.22,0c.22.07.49.16.8.28a2.79,2.79,0,0,0,1,.18,4,4,0,0,0,.84-.09c.29-.06.56-.13.82-.2a7.24,7.24,0,0,0,.71-.25,4.08,4.08,0,0,1,.51-.18.21.21,0,0,1,.26.1.21.21,0,0,1,0,.29,14.23,14.23,0,0,0-1.4,1.62c-.52.68-1.05,1.44-1.6,2.28s-1.11,1.72-1.67,2.66-1.1,1.88-1.6,2.82q.21-.28.57-.69a5.54,5.54,0,0,1,.87-.77,6.09,6.09,0,0,1,1.13-.62,3.56,3.56,0,0,1,1.37-.26,2.33,2.33,0,0,1,1.59.43,1.46,1.46,0,0,1,.46,1.13,4.55,4.55,0,0,1-.35,1.6c-.24.6-.51,1.2-.82,1.82s-.63,1.22-.94,1.81a16.89,16.89,0,0,0-.76,1.6,2.75,2.75,0,0,0-.23,1.13c0,.29.24.43.64.43a1.1,1.1,0,0,0,.62-.36c.26-.25.54-.55.85-.91s.64-.77,1-1.22l1-1.28.78-1.1c.22-.33.38-.56.46-.7A.21.21,0,0,1,68,28.15Z"/></clipPath><clipPath id="clip-path-23" transform="translate(4.15)"><path class="cls-1" d="M27.58,24.11a.2.2,0,0,1,.09-.22.23.23,0,0,1,.25,0c.2.08.43.19.67.31a1.82,1.82,0,0,0,.88.19,4.25,4.25,0,0,0,1.35-.23c.45-.15.79-.26,1-.32a.21.21,0,0,1,.27.09.17.17,0,0,1,0,.27,11.32,11.32,0,0,0-1.45,1.74q-.69,1-1.35,2.19a2.06,2.06,0,0,0,.23-.35c.12-.21.3-.48.53-.8a11.83,11.83,0,0,1,.79-1,10.27,10.27,0,0,1,1-1A4.81,4.81,0,0,1,33,24.15a2.75,2.75,0,0,1,1.23-.3c.69,0,1.13.16,1.33.48a1.7,1.7,0,0,1,.18,1.21,6.28,6.28,0,0,1-.49,1.58c-.25.58-.48,1.1-.7,1.59a10.31,10.31,0,0,0-.45,1.21c-.09.32,0,.48.29.48a1.6,1.6,0,0,0,.84-.27,5.27,5.27,0,0,0,.79-.64,5.68,5.68,0,0,0,.62-.72l.39-.55a.26.26,0,0,1,.23-.13.25.25,0,0,1,.23.15.26.26,0,0,1,0,.27c-.14.26-.34.59-.61,1A11.87,11.87,0,0,1,36,30.7a5.78,5.78,0,0,1-1.06,1,1.92,1.92,0,0,1-1.14.42,1.11,1.11,0,0,1-.75-.27l-.68-.61a5.84,5.84,0,0,0-.84-.66,2.84,2.84,0,0,0-1.23-.43.2.2,0,0,1-.18-.17.2.2,0,0,1,.11-.22,8.33,8.33,0,0,0,1.42-1.16,12.39,12.39,0,0,0,1.22-1.42A4,4,0,0,0,33.47,26c.1-.33,0-.5-.32-.5a1.44,1.44,0,0,0-.84.4,8.68,8.68,0,0,0-1.08,1.05c-.38.43-.77.91-1.16,1.42s-.77,1-1.11,1.52-.63.94-.89,1.36a7.22,7.22,0,0,0-.52.93A18.08,18.08,0,0,0,27,34.62a5.67,5.67,0,0,0,0,1.92.29.29,0,0,1-.06.29.34.34,0,0,1-.27.15,5.56,5.56,0,0,1-1-.09l-.94-.16a3.78,3.78,0,0,0-.95,0,3.2,3.2,0,0,0-1.05.38.23.23,0,0,1-.27,0,.18.18,0,0,1-.06-.23c.32-.71.69-1.47,1.1-2.28l1.2-2.46q.6-1.24,1.17-2.46c.38-.81.7-1.57,1-2.28s.49-1.35.65-1.91A4.16,4.16,0,0,0,27.58,24.11Z"/></clipPath><clipPath id="clip-path-24" transform="translate(4.15)"><path class="cls-1" d="M46.65,28.09s0,0,0,0v.11c-.06.17-.21.5-.44,1s-.51,1.07-.86,1.71-.77,1.33-1.23,2a16.42,16.42,0,0,1-1.51,1.94,8.29,8.29,0,0,1-1.71,1.46,3.38,3.38,0,0,1-1.86.59,3.76,3.76,0,0,1-2.16-.56,3.07,3.07,0,0,1-1.18-1.48,5,5,0,0,1-.3-2.09,10,10,0,0,1,.44-2.41A11.64,11.64,0,0,1,36.92,28a10.85,10.85,0,0,1,1.57-2.1,8,8,0,0,1,1.93-1.48,4.62,4.62,0,0,1,2.19-.55,2.22,2.22,0,0,1,1.68.57,2.09,2.09,0,0,1,.58,1.41,4.45,4.45,0,0,1-.34,1.82A6.26,6.26,0,0,1,43.4,29.5a6.7,6.7,0,0,1-1.75,1.41,4.35,4.35,0,0,1-2.18.57,2.36,2.36,0,0,1-1.21-.28,4.85,4.85,0,0,0,0,1.07,2.33,2.33,0,0,0,.27.88,1.72,1.72,0,0,0,.6.6A1.89,1.89,0,0,0,40,34a2.56,2.56,0,0,0,1.23-.35,7.69,7.69,0,0,0,1.25-.88,15.27,15.27,0,0,0,1.2-1.21c.4-.45.76-.88,1.08-1.3s.6-.82.85-1.2l.58-.86c.06-.06.1-.08.13-.08ZM42.53,25.5a2.22,2.22,0,0,0-1.13.33,5.13,5.13,0,0,0-1.06.9A7.85,7.85,0,0,0,39.41,28a8.86,8.86,0,0,0-.71,1.49,1,1,0,0,0,.24.39.69.69,0,0,0,.46.15,2.12,2.12,0,0,0,1.16-.34,4.38,4.38,0,0,0,1-.84,6,6,0,0,0,.78-1.09,5.06,5.06,0,0,0,.46-1.08,1.91,1.91,0,0,0,.09-.85A.33.33,0,0,0,42.53,25.5Z"/></clipPath><clipPath id="clip-path-25" transform="translate(4.15)"><path class="cls-1" d="M50.83,23.82a2.28,2.28,0,0,1,1.47.44,2.31,2.31,0,0,1,.77,1.1,4.22,4.22,0,0,1,.18,1.45A6,6,0,0,1,53,28.3a4.39,4.39,0,0,1-.57,1.19,1.25,1.25,0,0,1-.71.57.2.2,0,0,1-.17,0,.14.14,0,0,1-.09-.12,1.43,1.43,0,0,0-.26-.68,2.14,2.14,0,0,0-.48-.47c-.18-.13-.38-.25-.58-.38a2.42,2.42,0,0,1-.57-.44.21.21,0,0,1-.07-.18.15.15,0,0,1,.12-.13,1.6,1.6,0,0,0,.88-.64,3.07,3.07,0,0,0,.45-1,1.82,1.82,0,0,0,0-1,.52.52,0,0,0-.52-.41,2.09,2.09,0,0,0-.8.17,3.27,3.27,0,0,0-.83.47,3.06,3.06,0,0,0-.65.74,1.83,1.83,0,0,0-.26.95A1.9,1.9,0,0,0,48.18,28a4.86,4.86,0,0,0,.79.87c.31.28.65.55,1,.83a8.92,8.92,0,0,1,1,.93,4.5,4.5,0,0,1,.79,1.22,4.17,4.17,0,0,1,.3,1.66,3.59,3.59,0,0,1-.16.94,3.15,3.15,0,0,1-.64,1.13,3.78,3.78,0,0,1-1.32.93,6.29,6.29,0,0,1-4.39,0,6.33,6.33,0,0,1-1.6-1,6.16,6.16,0,0,1-1-1.07,3.23,3.23,0,0,1-.47-.79c-.07-.16,0-.25.16-.29a1.76,1.76,0,0,0,1-.64,6.25,6.25,0,0,0,.68-1.07c.19-.38.36-.74.5-1.1a1.77,1.77,0,0,1,.51-.74.15.15,0,0,1,.2,0,.18.18,0,0,1,.06.21,3.39,3.39,0,0,0-.38,1.58,2.38,2.38,0,0,0,.36,1.18,2.17,2.17,0,0,0,.85.74,2.45,2.45,0,0,0,1.11.26,1.4,1.4,0,0,0,.4-.07,1.73,1.73,0,0,0,.49-.21,1.14,1.14,0,0,0,.59-1,1.38,1.38,0,0,0-.46-.87l-1-1.06a10.64,10.64,0,0,1-1-1.23A2.39,2.39,0,0,1,46,28a4,4,0,0,1,.29-1.43,3.89,3.89,0,0,1,.88-1.35,4.25,4.25,0,0,1,1.5-1A5.58,5.58,0,0,1,50.83,23.82Z"/></clipPath><clipPath id="clip-path-26" transform="translate(4.15)"><path class="cls-1" d="M28.52,13.29a3.46,3.46,0,0,0-1.44,1.06,14,14,0,0,0-1.5,2.1c-.51.85-1,1.81-1.57,2.89s-1.08,2.22-1.65,3.43a4,4,0,0,0,.82.23,3.92,3.92,0,0,1,1.23-.93,2.69,2.69,0,0,1,1.16-.27,1.4,1.4,0,0,1,.84.27.86.86,0,0,1,.32.7,1.08,1.08,0,0,1-.22.71,1.39,1.39,0,0,1-.61.42,3.77,3.77,0,0,1-.9.18,10.34,10.34,0,0,1-1.12,0,5,5,0,0,0-.11.75,6.31,6.31,0,0,0,0,.88,4.92,4.92,0,0,0,.11.93,4.73,4.73,0,0,0,.24.88c.09.25,0,.41-.15.5a5.29,5.29,0,0,0-1.43.86c-.45.38-.81.69-1.09.95a.18.18,0,0,1-.23,0,.22.22,0,0,1-.13-.22,14,14,0,0,1,.44-3.33A10.17,10.17,0,0,1,22.43,24l-.31,0-.31,0-2.07,4.52C19,30,18.29,31.53,17.51,33s-1.57,2.86-2.39,4.18a23.89,23.89,0,0,1-2.58,3.47,13.61,13.61,0,0,1-2.8,2.4,6.2,6.2,0,0,1-3,1c-.09,0-.15,0-.18-.05a.27.27,0,0,1,0-.18,8.76,8.76,0,0,0,0-1.54,7.49,7.49,0,0,0-.31-1.58,7.24,7.24,0,0,0-.66-1.44,4.57,4.57,0,0,0-1-1.14,3.21,3.21,0,0,1-.68-.75,5.42,5.42,0,0,1-.46-.85,6.72,6.72,0,0,1-.28-.87A5.28,5.28,0,0,1,3,34.89a.18.18,0,0,1,.09-.21.25.25,0,0,1,.25,0,3.64,3.64,0,0,0,1,.35,11.85,11.85,0,0,0,2.06.14,5.16,5.16,0,0,0,2.79-.9,15.22,15.22,0,0,0,2.83-2.38,35.86,35.86,0,0,0,2.87-3.42c1-1.28,1.92-2.63,2.88-4a6.3,6.3,0,0,0-1.07.5c-.3.18-.55.34-.74.48a.2.2,0,0,1-.21,0,.17.17,0,0,1-.1-.18,2.49,2.49,0,0,0-.32-1.44,4.13,4.13,0,0,0-.66-.79.23.23,0,0,1-.1-.24.31.31,0,0,1,.17-.2A6.42,6.42,0,0,1,17.06,22a11.45,11.45,0,0,1,2.34.12C20.63,20.33,21.84,18.61,23,17a27.88,27.88,0,0,1,3.56-4.05,21.7,21.7,0,0,0-2.82-.16,11.11,11.11,0,0,0-4,.64,9.11,9.11,0,0,0-4.69,3.76A12.89,12.89,0,0,0,14,19.42a10.51,10.51,0,0,0-.52,1.89,10.37,10.37,0,0,0-.13,1.07c0,.17-.17.3-.41.39A7.28,7.28,0,0,1,12,23q-.54.12-1.2.3a5.1,5.1,0,0,0-1.3.57,4.48,4.48,0,0,0-2,2.77.38.38,0,0,1-.21.24.34.34,0,0,1-.31,0,2.24,2.24,0,0,1-.86-1.08,5.76,5.76,0,0,1-.47-2,9.71,9.71,0,0,1,.17-2.52,9.34,9.34,0,0,1,1-2.76A11.7,11.7,0,0,1,9,15.85a13,13,0,0,1,3.37-2.33,21,21,0,0,1,4.87-1.62,32.12,32.12,0,0,1,6.59-.6c1,0,2.13,0,3.28.16l3.42.35c1.13.12,2.21.22,3.25.3a20.38,20.38,0,0,0,2.79,0,.28.28,0,0,1,.29.19.26.26,0,0,1-.11.33c-.31.26-.62.54-.93.85s-.6.62-.87.94-.51.61-.72.9-.39.55-.53.75a.36.36,0,0,1-.33.14.33.33,0,0,1-.29-.19,4.82,4.82,0,0,0-.48-.65,6.48,6.48,0,0,0-.84-.75,7.44,7.44,0,0,0-1.31-.75A10.35,10.35,0,0,0,28.52,13.29Z"/></clipPath><clipPath id="clip-path-27" transform="translate(4.15)"><path class="cls-1" d="M67.54,27.45a.23.23,0,0,1,.21.13.24.24,0,0,1,0,.26c-.14.28-.35.68-.64,1.2s-.61,1.11-1,1.74-.78,1.27-1.23,1.91a18.62,18.62,0,0,1-1.39,1.78,9.51,9.51,0,0,1-1.42,1.32,2.37,2.37,0,0,1-1.34.52,2.61,2.61,0,0,1-1.23-.26,2,2,0,0,1-.75-.66,2.37,2.37,0,0,1-.36-.87,4.61,4.61,0,0,1-.09-.88,4.24,4.24,0,0,1,.4-1.66,20,20,0,0,1,1-1.9c.37-.65.75-1.29,1.15-1.92s.72-1.19,1-1.68a3.63,3.63,0,0,0,.42-1.19c0-.3-.14-.46-.51-.46a1.84,1.84,0,0,0-1,.33,6.19,6.19,0,0,0-1,.83,10.86,10.86,0,0,0-1,1.1,12.74,12.74,0,0,0-.83,1.11c-.36.81-.69,1.59-1,2.34s-.53,1.46-.71,2.1a13,13,0,0,0-.38,1.78,3.66,3.66,0,0,0,0,1.34.29.29,0,0,1-.07.29.43.43,0,0,1-.29.15,2.74,2.74,0,0,1-1.05-.09c-.38-.09-.76-.17-1.14-.23a5,5,0,0,0-1.16-.05,2,2,0,0,0-1.11.45c-.09.07-.18.06-.3,0s-.11-.17,0-.22a3.8,3.8,0,0,0,.74-1c.35-.59.77-1.33,1.24-2.23s1-1.92,1.56-3.05,1.12-2.29,1.68-3.48,1.1-2.35,1.63-3.49,1-2.17,1.39-3.09.71-1.69.95-2.31a3.43,3.43,0,0,0,.34-1.1.29.29,0,0,1,.09-.21.19.19,0,0,1,.22,0c.23.07.49.16.8.28a2.79,2.79,0,0,0,1,.18,4.17,4.17,0,0,0,.85-.09l.81-.2A7.24,7.24,0,0,0,64.7,16a4.08,4.08,0,0,1,.51-.18.21.21,0,0,1,.26.1.21.21,0,0,1,0,.29A14.23,14.23,0,0,0,64,17.78c-.51.68-1.05,1.44-1.6,2.28s-1.11,1.72-1.67,2.66-1.09,1.88-1.6,2.82q.21-.28.57-.69a6.62,6.62,0,0,1,.87-.77,6.09,6.09,0,0,1,1.13-.62,3.56,3.56,0,0,1,1.37-.26,2.33,2.33,0,0,1,1.59.43,1.46,1.46,0,0,1,.46,1.13,4.55,4.55,0,0,1-.35,1.6c-.24.6-.51,1.2-.82,1.82s-.62,1.22-.94,1.81a14.47,14.47,0,0,0-.75,1.6,2.63,2.63,0,0,0-.24,1.13c0,.29.24.43.64.43a1.1,1.1,0,0,0,.62-.36c.26-.25.54-.55.85-.91s.64-.77,1-1.22.66-.87,1-1.28l.78-1.1c.22-.33.38-.56.46-.7A.21.21,0,0,1,67.54,27.45Z"/></clipPath><clipPath id="clip-path-28" transform="translate(4.15)"><path class="cls-1" d="M27.08,23.41a.2.2,0,0,1,.09-.22.23.23,0,0,1,.25,0c.2.08.43.19.67.31a1.84,1.84,0,0,0,.88.19,4.25,4.25,0,0,0,1.35-.23c.45-.15.79-.26,1-.32a.23.23,0,0,1,.28.09.18.18,0,0,1,0,.27,11.32,11.32,0,0,0-1.45,1.74c-.46.69-.91,1.42-1.34,2.19,0,0,.09-.13.22-.35s.3-.48.53-.8a11.83,11.83,0,0,1,.79-1,10.27,10.27,0,0,1,1-1,4.81,4.81,0,0,1,1.14-.78,2.78,2.78,0,0,1,1.23-.3c.69,0,1.14.16,1.33.48a1.75,1.75,0,0,1,.19,1.21,6.78,6.78,0,0,1-.5,1.58c-.25.58-.48,1.1-.7,1.59a10.31,10.31,0,0,0-.45,1.21c-.09.32,0,.48.29.48a1.6,1.6,0,0,0,.84-.27,4.81,4.81,0,0,0,.79-.64,5.68,5.68,0,0,0,.62-.72l.39-.55a.26.26,0,0,1,.23-.13.25.25,0,0,1,.23.15.23.23,0,0,1,0,.27c-.13.26-.34.59-.6,1a13.78,13.78,0,0,1-.9,1.19,5.78,5.78,0,0,1-1.06,1,1.92,1.92,0,0,1-1.14.42,1.11,1.11,0,0,1-.75-.27c-.21-.18-.43-.39-.67-.61a6.58,6.58,0,0,0-.85-.66,2.84,2.84,0,0,0-1.23-.43.2.2,0,0,1-.18-.17.21.21,0,0,1,.11-.22,8.33,8.33,0,0,0,1.42-1.16,12.39,12.39,0,0,0,1.22-1.42A3.74,3.74,0,0,0,33,25.28c.1-.33,0-.5-.32-.5a1.44,1.44,0,0,0-.84.4,8.68,8.68,0,0,0-1.08,1.05c-.38.43-.77.91-1.16,1.42s-.77,1-1.1,1.52-.64.94-.9,1.36a7.22,7.22,0,0,0-.52.93,18.08,18.08,0,0,0-.59,2.46,5.67,5.67,0,0,0,0,1.92.27.27,0,0,1-.06.29.34.34,0,0,1-.27.15,5.56,5.56,0,0,1-1-.09L24.13,36a3.78,3.78,0,0,0-.95,0,3.2,3.2,0,0,0-1.05.38.23.23,0,0,1-.27,0,.18.18,0,0,1-.06-.23c.33-.71.69-1.47,1.1-2.28s.81-1.63,1.2-2.46.79-1.65,1.17-2.46.71-1.57,1-2.28.49-1.35.65-1.91A3.9,3.9,0,0,0,27.08,23.41Z"/></clipPath><clipPath id="clip-path-29" transform="translate(4.15)"><path class="cls-1" d="M46.15,27.39s0,0,0,0v.11c-.07.17-.22.5-.44,1s-.52,1.07-.87,1.71-.77,1.33-1.23,2a17.49,17.49,0,0,1-1.5,1.94,8.85,8.85,0,0,1-1.71,1.46,3.43,3.43,0,0,1-1.87.59,3.76,3.76,0,0,1-2.16-.56,3.13,3.13,0,0,1-1.18-1.48,5,5,0,0,1-.3-2.09,10.49,10.49,0,0,1,.44-2.41,11.64,11.64,0,0,1,1.06-2.41A10.85,10.85,0,0,1,38,25.2a8,8,0,0,1,1.93-1.48,4.62,4.62,0,0,1,2.19-.55,2.22,2.22,0,0,1,1.68.57,2.1,2.1,0,0,1,.59,1.41A4.65,4.65,0,0,1,44,27,6.26,6.26,0,0,1,42.9,28.8a6.7,6.7,0,0,1-1.75,1.41,4.34,4.34,0,0,1-2.17.57,2.39,2.39,0,0,1-1.22-.28,4.85,4.85,0,0,0,0,1.07,2.33,2.33,0,0,0,.27.88,1.72,1.72,0,0,0,.6.6,1.93,1.93,0,0,0,.95.22,2.62,2.62,0,0,0,1.23-.35A8.08,8.08,0,0,0,42,32a13.74,13.74,0,0,0,1.2-1.21c.4-.45.76-.88,1.08-1.3s.6-.82.85-1.2l.59-.86a.17.17,0,0,1,.13-.08ZM42,24.8a2.22,2.22,0,0,0-1.13.33,5.13,5.13,0,0,0-1.06.9,8.5,8.5,0,0,0-.93,1.27,8.86,8.86,0,0,0-.71,1.49,1,1,0,0,0,.24.39.69.69,0,0,0,.46.15A2.12,2.12,0,0,0,40.06,29a4.18,4.18,0,0,0,1-.84,6,6,0,0,0,.78-1.09A5.06,5.06,0,0,0,42.3,26a1.91,1.91,0,0,0,.09-.85A.33.33,0,0,0,42,24.8Z"/></clipPath><clipPath id="clip-path-30" transform="translate(4.15)"><path class="cls-1" d="M50.33,23.12a2.28,2.28,0,0,1,1.47.44,2.31,2.31,0,0,1,.77,1.1,4.22,4.22,0,0,1,.18,1.45,6,6,0,0,1-.26,1.49,4.39,4.39,0,0,1-.57,1.19,1.25,1.25,0,0,1-.71.57.2.2,0,0,1-.17,0,.14.14,0,0,1-.09-.12,1.43,1.43,0,0,0-.26-.68,2.14,2.14,0,0,0-.48-.47c-.18-.13-.37-.25-.58-.38a2.42,2.42,0,0,1-.57-.44.21.21,0,0,1-.07-.18.15.15,0,0,1,.12-.13,1.57,1.57,0,0,0,.88-.64,2.89,2.89,0,0,0,.45-1,1.82,1.82,0,0,0,0-1,.52.52,0,0,0-.52-.41,2.09,2.09,0,0,0-.8.17,3.27,3.27,0,0,0-.83.47,3.06,3.06,0,0,0-.65.74,1.83,1.83,0,0,0-.26.95,1.9,1.9,0,0,0,.31,1.07,4.86,4.86,0,0,0,.79.87c.32.28.65.55,1,.83a8.83,8.83,0,0,1,1,.93,4.5,4.5,0,0,1,.79,1.22,4.17,4.17,0,0,1,.31,1.66,3.68,3.68,0,0,1-.17.94,3,3,0,0,1-.64,1.13,3.78,3.78,0,0,1-1.32.93,5.39,5.39,0,0,1-2.22.39,5.46,5.46,0,0,1-2.17-.4,6.33,6.33,0,0,1-1.6-.95,6.16,6.16,0,0,1-1-1.07A3.23,3.23,0,0,1,42,33c-.07-.16,0-.25.16-.29a1.82,1.82,0,0,0,1-.64A6.88,6.88,0,0,0,43.75,31c.19-.38.36-.74.5-1.1a1.77,1.77,0,0,1,.51-.74.17.17,0,0,1,.21,0,.19.19,0,0,1,.05.21,3.39,3.39,0,0,0-.38,1.58A2.29,2.29,0,0,0,45,32.12a2.08,2.08,0,0,0,.84.74,2.45,2.45,0,0,0,1.11.26,1.4,1.4,0,0,0,.4-.07,1.61,1.61,0,0,0,.49-.21,1.07,1.07,0,0,0,.42-.4,1.15,1.15,0,0,0,.17-.64,1.33,1.33,0,0,0-.46-.87l-1-1.06a11.78,11.78,0,0,1-1-1.23,2.39,2.39,0,0,1-.45-1.38,4,4,0,0,1,.29-1.43,3.89,3.89,0,0,1,.88-1.35,4.25,4.25,0,0,1,1.5-1A5.58,5.58,0,0,1,50.33,23.12Z"/></clipPath></defs><title>Asset 1</title><g id="Layer_2" data-name="Layer 2"><g id="Layer_5" data-name="Layer 5"><text class="cls-2" transform="translate(43.07 19.83)">Re</text><text class="cls-3" transform="translate(9.65 37.75)">Fre<tspan class="cls-4" x="41.02" y="0">s</tspan><tspan x="50.68" y="0">h</tspan></text><text class="cls-5" transform="translate(43.07 19.83)">Re</text><text class="cls-6" transform="translate(9.65 37.75)">Fre<tspan class="cls-4" x="41.02" y="0">s</tspan><tspan x="50.68" y="0">h</tspan></text><text class="cls-7" transform="translate(43.07 19.83)">Re</text><text class="cls-8" transform="translate(9.64 37.87)">Fre<tspan class="cls-4" x="41.02" y="0">s</tspan><tspan x="50.68" y="0">h</tspan></text><g class="cls-9"><line class="cls-10" x1="2.53" y1="32.13" x2="82.59" y2="32.13"/><line class="cls-10" x1="2.53" y1="33.31" x2="82.59" y2="33.31"/><line class="cls-10" x1="2.53" y1="34.49" x2="82.59" y2="34.49"/><line class="cls-10" x1="2.53" y1="35.67" x2="82.59" y2="35.67"/><line class="cls-10" x1="2.53" y1="36.84" x2="82.59" y2="36.84"/><line class="cls-10" x1="2.53" y1="36.84" x2="82.59" y2="36.84"/><line class="cls-10" x1="2.53" y1="38.02" x2="82.59" y2="38.02"/><line class="cls-10" x1="2.53" y1="39.2" x2="82.59" y2="39.2"/><line class="cls-10" x1="2.53" y1="40.37" x2="82.59" y2="40.37"/><line class="cls-10" x1="2.53" y1="41.55" x2="82.59" y2="41.55"/><line class="cls-10" x1="2.53" y1="42.73" x2="82.59" y2="42.73"/><line class="cls-10" x1="2.53" y1="43.91" x2="82.59" y2="43.91"/><line class="cls-10" x1="2.53" y1="43.91" x2="82.59" y2="43.91"/><line class="cls-10" x1="2.53" y1="45.08" x2="82.59" y2="45.08"/><line class="cls-10" x1="2.53" y1="46.26" x2="82.59" y2="46.26"/><line class="cls-10" x1="2.53" y1="47.44" x2="82.59" y2="47.44"/></g><g class="cls-11"><line class="cls-10" x1="2.5" y1="32.49" x2="82.55" y2="32.49"/><line class="cls-10" x1="2.5" y1="33.67" x2="82.55" y2="33.67"/><line class="cls-10" x1="2.5" y1="34.84" x2="82.55" y2="34.84"/><line class="cls-10" x1="2.5" y1="36.02" x2="82.55" y2="36.02"/><line class="cls-10" x1="2.5" y1="37.2" x2="82.55" y2="37.2"/><line class="cls-10" x1="2.5" y1="37.2" x2="82.55" y2="37.2"/><line class="cls-10" x1="2.5" y1="38.38" x2="82.55" y2="38.38"/><line class="cls-10" x1="2.5" y1="39.55" x2="82.55" y2="39.55"/><line class="cls-10" x1="2.5" y1="40.73" x2="82.55" y2="40.73"/><line class="cls-10" x1="2.5" y1="41.91" x2="82.55" y2="41.91"/><line class="cls-10" x1="2.5" y1="43.09" x2="82.55" y2="43.09"/><line class="cls-10" x1="2.5" y1="44.26" x2="82.55" y2="44.26"/><line class="cls-10" x1="2.5" y1="44.26" x2="82.55" y2="44.26"/><line class="cls-10" x1="2.5" y1="45.44" x2="82.55" y2="45.44"/><line class="cls-10" x1="2.5" y1="46.62" x2="82.55" y2="46.62"/><line class="cls-10" x1="2.5" y1="47.79" x2="82.55" y2="47.79"/></g><g class="cls-12"><line class="cls-10" x1="2.49" y1="32.43" x2="82.55" y2="32.43"/><line class="cls-10" x1="2.49" y1="33.61" x2="82.55" y2="33.61"/><line class="cls-10" x1="2.49" y1="34.79" x2="82.55" y2="34.79"/><line class="cls-10" x1="2.49" y1="35.97" x2="82.55" y2="35.97"/><line class="cls-10" x1="2.49" y1="37.14" x2="82.55" y2="37.14"/><line class="cls-10" x1="2.49" y1="37.14" x2="82.55" y2="37.14"/><line class="cls-10" x1="2.49" y1="38.32" x2="82.55" y2="38.32"/><line class="cls-10" x1="2.49" y1="39.5" x2="82.55" y2="39.5"/><line class="cls-10" x1="2.49" y1="40.68" x2="82.55" y2="40.68"/><line class="cls-10" x1="2.49" y1="41.85" x2="82.55" y2="41.85"/><line class="cls-10" x1="2.49" y1="43.03" x2="82.55" y2="43.03"/><line class="cls-10" x1="2.49" y1="44.21" x2="82.55" y2="44.21"/><line class="cls-10" x1="2.49" y1="44.21" x2="82.55" y2="44.21"/><line class="cls-10" x1="2.49" y1="45.38" x2="82.55" y2="45.38"/><line class="cls-10" x1="2.49" y1="46.56" x2="82.55" y2="46.56"/><line class="cls-10" x1="2.49" y1="47.74" x2="82.55" y2="47.74"/></g><g class="cls-13"><line class="cls-10" x1="2.53" y1="32.43" x2="82.58" y2="32.43"/><line class="cls-10" x1="2.53" y1="33.61" x2="82.58" y2="33.61"/><line class="cls-10" x1="2.53" y1="34.78" x2="82.58" y2="34.78"/><line class="cls-10" x1="2.53" y1="35.96" x2="82.58" y2="35.96"/><line class="cls-10" x1="2.53" y1="37.14" x2="82.58" y2="37.14"/><line class="cls-10" x1="2.53" y1="37.14" x2="82.58" y2="37.14"/><line class="cls-10" x1="2.53" y1="38.31" x2="82.58" y2="38.31"/><line class="cls-10" x1="2.53" y1="39.49" x2="82.58" y2="39.49"/><line class="cls-10" x1="2.53" y1="40.67" x2="82.58" y2="40.67"/><line class="cls-10" x1="2.53" y1="41.85" x2="82.58" y2="41.85"/><line class="cls-10" x1="2.53" y1="43.02" x2="82.58" y2="43.02"/><line class="cls-10" x1="2.53" y1="44.2" x2="82.58" y2="44.2"/><line class="cls-10" x1="2.53" y1="44.2" x2="82.58" y2="44.2"/><line class="cls-10" x1="2.53" y1="45.38" x2="82.58" y2="45.38"/><line class="cls-10" x1="2.53" y1="46.56" x2="82.58" y2="46.56"/><line class="cls-10" x1="2.53" y1="47.73" x2="82.58" y2="47.73"/></g><g class="cls-14"><line class="cls-10" x1="2.54" y1="32.43" x2="82.59" y2="32.43"/><line class="cls-10" x1="2.54" y1="33.61" x2="82.59" y2="33.61"/><line class="cls-10" x1="2.54" y1="34.79" x2="82.59" y2="34.79"/><line class="cls-10" x1="2.54" y1="35.97" x2="82.59" y2="35.97"/><line class="cls-10" x1="2.54" y1="37.14" x2="82.59" y2="37.14"/><line class="cls-10" x1="2.54" y1="37.14" x2="82.59" y2="37.14"/><line class="cls-10" x1="2.54" y1="38.32" x2="82.59" y2="38.32"/><line class="cls-10" x1="2.54" y1="39.5" x2="82.59" y2="39.5"/><line class="cls-10" x1="2.54" y1="40.67" x2="82.59" y2="40.67"/><line class="cls-10" x1="2.54" y1="41.85" x2="82.59" y2="41.85"/><line class="cls-10" x1="2.54" y1="43.03" x2="82.59" y2="43.03"/><line class="cls-10" x1="2.54" y1="44.21" x2="82.59" y2="44.21"/><line class="cls-10" x1="2.54" y1="44.21" x2="82.59" y2="44.21"/><line class="cls-10" x1="2.54" y1="45.38" x2="82.59" y2="45.38"/><line class="cls-10" x1="2.54" y1="46.56" x2="82.59" y2="46.56"/><line class="cls-10" x1="2.54" y1="47.74" x2="82.59" y2="47.74"/></g><text class="cls-2" transform="translate(42.58 19.13)">Re</text><text class="cls-3" transform="translate(9.15 37.05)">Fre<tspan class="cls-4" x="41.02" y="0">s</tspan><tspan x="50.68" y="0">h</tspan></text><text class="cls-5" transform="translate(42.58 19.13)">Re</text><text class="cls-6" transform="translate(9.15 37.05)">Fre<tspan class="cls-4" x="41.02" y="0">s</tspan><tspan x="50.68" y="0">h</tspan></text><text class="cls-7" transform="translate(42.58 19.13)">Re</text><text class="cls-8" transform="translate(9.14 37.17)">Fre<tspan class="cls-4" x="41.02" y="0">s</tspan><tspan x="50.68" y="0">h</tspan></text><g class="cls-15"><line class="cls-10" x1="2.04" y1="31.43" x2="82.09" y2="31.43"/><line class="cls-10" x1="2.04" y1="32.61" x2="82.09" y2="32.61"/><line class="cls-10" x1="2.04" y1="33.79" x2="82.09" y2="33.79"/><line class="cls-10" x1="2.04" y1="34.97" x2="82.09" y2="34.97"/><line class="cls-10" x1="2.04" y1="36.14" x2="82.09" y2="36.14"/><line class="cls-10" x1="2.04" y1="36.14" x2="82.09" y2="36.14"/><line class="cls-10" x1="2.04" y1="37.32" x2="82.09" y2="37.32"/><line class="cls-10" x1="2.04" y1="38.5" x2="82.09" y2="38.5"/><line class="cls-10" x1="2.04" y1="39.67" x2="82.09" y2="39.67"/><line class="cls-10" x1="2.04" y1="40.85" x2="82.09" y2="40.85"/><line class="cls-10" x1="2.04" y1="42.03" x2="82.09" y2="42.03"/><line class="cls-10" x1="2.04" y1="43.21" x2="82.09" y2="43.21"/><line class="cls-10" x1="2.04" y1="43.21" x2="82.09" y2="43.21"/><line class="cls-10" x1="2.04" y1="44.38" x2="82.09" y2="44.38"/><line class="cls-10" x1="2.04" y1="45.56" x2="82.09" y2="45.56"/><line class="cls-10" x1="2.04" y1="46.74" x2="82.09" y2="46.74"/></g><g class="cls-16"><line class="cls-10" x1="2" y1="31.79" x2="82.05" y2="31.79"/><line class="cls-10" x1="2" y1="32.97" x2="82.05" y2="32.97"/><line class="cls-10" x1="2" y1="34.14" x2="82.05" y2="34.14"/><line class="cls-10" x1="2" y1="35.32" x2="82.05" y2="35.32"/><line class="cls-10" x1="2" y1="36.5" x2="82.05" y2="36.5"/><line class="cls-10" x1="2" y1="36.5" x2="82.05" y2="36.5"/><line class="cls-10" x1="2" y1="37.68" x2="82.05" y2="37.68"/><line class="cls-10" x1="2" y1="38.85" x2="82.05" y2="38.85"/><line class="cls-10" x1="2" y1="40.03" x2="82.05" y2="40.03"/><line class="cls-10" x1="2" y1="41.21" x2="82.05" y2="41.21"/><line class="cls-10" x1="2" y1="42.39" x2="82.05" y2="42.39"/><line class="cls-10" x1="2" y1="43.56" x2="82.05" y2="43.56"/><line class="cls-10" x1="2" y1="43.56" x2="82.05" y2="43.56"/><line class="cls-10" x1="2" y1="44.74" x2="82.05" y2="44.74"/><line class="cls-10" x1="2" y1="45.92" x2="82.05" y2="45.92"/><line class="cls-10" x1="2" y1="47.09" x2="82.05" y2="47.09"/></g><g class="cls-17"><line class="cls-10" x1="2" y1="31.73" x2="82.05" y2="31.73"/><line class="cls-10" x1="2" y1="32.91" x2="82.05" y2="32.91"/><line class="cls-10" x1="2" y1="34.09" x2="82.05" y2="34.09"/><line class="cls-10" x1="2" y1="35.27" x2="82.05" y2="35.27"/><line class="cls-10" x1="2" y1="36.44" x2="82.05" y2="36.44"/><line class="cls-10" x1="2" y1="36.44" x2="82.05" y2="36.44"/><line class="cls-10" x1="2" y1="37.62" x2="82.05" y2="37.62"/><line class="cls-10" x1="2" y1="38.8" x2="82.05" y2="38.8"/><line class="cls-10" x1="2" y1="39.98" x2="82.05" y2="39.98"/><line class="cls-10" x1="2" y1="41.15" x2="82.05" y2="41.15"/><line class="cls-10" x1="2" y1="42.33" x2="82.05" y2="42.33"/><line class="cls-10" x1="2" y1="43.51" x2="82.05" y2="43.51"/><line class="cls-10" x1="2" y1="43.51" x2="82.05" y2="43.51"/><line class="cls-10" x1="2" y1="44.68" x2="82.05" y2="44.68"/><line class="cls-10" x1="2" y1="45.86" x2="82.05" y2="45.86"/><line class="cls-10" x1="2" y1="47.04" x2="82.05" y2="47.04"/></g><g class="cls-18"><line class="cls-10" x1="2.03" y1="31.73" x2="82.08" y2="31.73"/><line class="cls-10" x1="2.03" y1="32.91" x2="82.08" y2="32.91"/><line class="cls-10" x1="2.03" y1="34.08" x2="82.08" y2="34.08"/><line class="cls-10" x1="2.03" y1="35.26" x2="82.08" y2="35.26"/><line class="cls-10" x1="2.03" y1="36.44" x2="82.08" y2="36.44"/><line class="cls-10" x1="2.03" y1="36.44" x2="82.08" y2="36.44"/><line class="cls-10" x1="2.03" y1="37.61" x2="82.08" y2="37.61"/><line class="cls-10" x1="2.03" y1="38.79" x2="82.08" y2="38.79"/><line class="cls-10" x1="2.03" y1="39.97" x2="82.08" y2="39.97"/><line class="cls-10" x1="2.03" y1="41.15" x2="82.08" y2="41.15"/><line class="cls-10" x1="2.03" y1="42.32" x2="82.08" y2="42.32"/><line class="cls-10" x1="2.03" y1="43.5" x2="82.08" y2="43.5"/><line class="cls-10" x1="2.03" y1="43.5" x2="82.08" y2="43.5"/><line class="cls-10" x1="2.03" y1="44.68" x2="82.08" y2="44.68"/><line class="cls-10" x1="2.03" y1="45.86" x2="82.08" y2="45.86"/><line class="cls-10" x1="2.03" y1="47.03" x2="82.08" y2="47.03"/></g><g class="cls-19"><line class="cls-10" x1="2.04" y1="31.73" x2="82.09" y2="31.73"/><line class="cls-10" x1="2.04" y1="32.91" x2="82.09" y2="32.91"/><line class="cls-10" x1="2.04" y1="34.09" x2="82.09" y2="34.09"/><line class="cls-10" x1="2.04" y1="35.27" x2="82.09" y2="35.27"/><line class="cls-10" x1="2.04" y1="36.44" x2="82.09" y2="36.44"/><line class="cls-10" x1="2.04" y1="36.44" x2="82.09" y2="36.44"/><line class="cls-10" x1="2.04" y1="37.62" x2="82.09" y2="37.62"/><line class="cls-10" x1="2.04" y1="38.8" x2="82.09" y2="38.8"/><line class="cls-10" x1="2.04" y1="39.97" x2="82.09" y2="39.97"/><line class="cls-10" x1="2.04" y1="41.15" x2="82.09" y2="41.15"/><line class="cls-10" x1="2.04" y1="42.33" x2="82.09" y2="42.33"/><line class="cls-10" x1="2.04" y1="43.51" x2="82.09" y2="43.51"/><line class="cls-10" x1="2.04" y1="43.51" x2="82.09" y2="43.51"/><line class="cls-10" x1="2.04" y1="44.68" x2="82.09" y2="44.68"/><line class="cls-10" x1="2.04" y1="45.86" x2="82.09" y2="45.86"/><line class="cls-10" x1="2.04" y1="47.04" x2="82.09" y2="47.04"/></g><text class="cls-2" transform="translate(42.08 18.43)">Re</text><text class="cls-3" transform="translate(8.65 36.35)">Fre<tspan class="cls-4" x="41.02" y="0">s</tspan><tspan x="50.68" y="0">h</tspan></text><text class="cls-5" transform="translate(42.08 18.43)">Re</text><text class="cls-6" transform="translate(8.65 36.35)">Fre<tspan class="cls-4" x="41.02" y="0">s</tspan><tspan x="50.68" y="0">h</tspan></text><text class="cls-7" transform="translate(42.08 18.43)">Re</text><text class="cls-8" transform="translate(8.64 36.47)">Fre<tspan class="cls-4" x="41.02" y="0">s</tspan><tspan x="50.68" y="0">h</tspan></text><g class="cls-20"><line class="cls-10" x1="1.54" y1="30.73" x2="81.59" y2="30.73"/><line class="cls-10" x1="1.54" y1="31.91" x2="81.59" y2="31.91"/><line class="cls-10" x1="1.54" y1="33.09" x2="81.59" y2="33.09"/><line class="cls-10" x1="1.54" y1="34.27" x2="81.59" y2="34.27"/><line class="cls-10" x1="1.54" y1="35.44" x2="81.59" y2="35.44"/><line class="cls-10" x1="1.54" y1="35.44" x2="81.59" y2="35.44"/><line class="cls-10" x1="1.54" y1="36.62" x2="81.59" y2="36.62"/><line class="cls-10" x1="1.54" y1="37.8" x2="81.59" y2="37.8"/><line class="cls-10" x1="1.54" y1="38.97" x2="81.59" y2="38.97"/><line class="cls-10" x1="1.54" y1="40.15" x2="81.59" y2="40.15"/><line class="cls-10" x1="1.54" y1="41.33" x2="81.59" y2="41.33"/><line class="cls-10" x1="1.54" y1="42.51" x2="81.59" y2="42.51"/><line class="cls-10" x1="1.54" y1="42.51" x2="81.59" y2="42.51"/><line class="cls-10" x1="1.54" y1="43.68" x2="81.59" y2="43.68"/><line class="cls-10" x1="1.54" y1="44.86" x2="81.59" y2="44.86"/><line class="cls-10" x1="1.54" y1="46.04" x2="81.59" y2="46.04"/></g><g class="cls-21"><line class="cls-10" x1="1.5" y1="31.09" x2="81.56" y2="31.09"/><line class="cls-10" x1="1.5" y1="32.27" x2="81.56" y2="32.27"/><line class="cls-10" x1="1.5" y1="33.44" x2="81.56" y2="33.44"/><line class="cls-10" x1="1.5" y1="34.62" x2="81.56" y2="34.62"/><line class="cls-10" x1="1.5" y1="35.8" x2="81.56" y2="35.8"/><line class="cls-10" x1="1.5" y1="35.8" x2="81.56" y2="35.8"/><line class="cls-10" x1="1.5" y1="36.98" x2="81.56" y2="36.98"/><line class="cls-10" x1="1.5" y1="38.15" x2="81.56" y2="38.15"/><line class="cls-10" x1="1.5" y1="39.33" x2="81.56" y2="39.33"/><line class="cls-10" x1="1.5" y1="40.51" x2="81.56" y2="40.51"/><line class="cls-10" x1="1.5" y1="41.69" x2="81.56" y2="41.69"/><line class="cls-10" x1="1.5" y1="42.86" x2="81.56" y2="42.86"/><line class="cls-10" x1="1.5" y1="42.86" x2="81.56" y2="42.86"/><line class="cls-10" x1="1.5" y1="44.04" x2="81.56" y2="44.04"/><line class="cls-10" x1="1.5" y1="45.22" x2="81.56" y2="45.22"/><line class="cls-10" x1="1.5" y1="46.39" x2="81.56" y2="46.39"/></g><g class="cls-22"><line class="cls-10" x1="1.5" y1="31.03" x2="81.55" y2="31.03"/><line class="cls-10" x1="1.5" y1="32.21" x2="81.55" y2="32.21"/><line class="cls-10" x1="1.5" y1="33.39" x2="81.55" y2="33.39"/><line class="cls-10" x1="1.5" y1="34.57" x2="81.55" y2="34.57"/><line class="cls-10" x1="1.5" y1="35.74" x2="81.55" y2="35.74"/><line class="cls-10" x1="1.5" y1="35.74" x2="81.55" y2="35.74"/><line class="cls-10" x1="1.5" y1="36.92" x2="81.55" y2="36.92"/><line class="cls-10" x1="1.5" y1="38.1" x2="81.55" y2="38.1"/><line class="cls-10" x1="1.5" y1="39.28" x2="81.55" y2="39.28"/><line class="cls-10" x1="1.5" y1="40.45" x2="81.55" y2="40.45"/><line class="cls-10" x1="1.5" y1="41.63" x2="81.55" y2="41.63"/><line class="cls-10" x1="1.5" y1="42.81" x2="81.55" y2="42.81"/><line class="cls-10" x1="1.5" y1="42.81" x2="81.55" y2="42.81"/><line class="cls-10" x1="1.5" y1="43.98" x2="81.55" y2="43.98"/><line class="cls-10" x1="1.5" y1="45.16" x2="81.55" y2="45.16"/><line class="cls-10" x1="1.5" y1="46.34" x2="81.55" y2="46.34"/></g><g class="cls-23"><line class="cls-10" x1="1.53" y1="31.03" x2="81.58" y2="31.03"/><line class="cls-10" x1="1.53" y1="32.21" x2="81.58" y2="32.21"/><line class="cls-10" x1="1.53" y1="33.38" x2="81.58" y2="33.38"/><line class="cls-10" x1="1.53" y1="34.56" x2="81.58" y2="34.56"/><line class="cls-10" x1="1.53" y1="35.74" x2="81.58" y2="35.74"/><line class="cls-10" x1="1.53" y1="35.74" x2="81.58" y2="35.74"/><line class="cls-10" x1="1.53" y1="36.91" x2="81.58" y2="36.91"/><line class="cls-10" x1="1.53" y1="38.09" x2="81.58" y2="38.09"/><line class="cls-10" x1="1.53" y1="39.27" x2="81.58" y2="39.27"/><line class="cls-10" x1="1.53" y1="40.45" x2="81.58" y2="40.45"/><line class="cls-10" x1="1.53" y1="41.62" x2="81.58" y2="41.62"/><line class="cls-10" x1="1.53" y1="42.8" x2="81.58" y2="42.8"/><line class="cls-10" x1="1.53" y1="42.8" x2="81.58" y2="42.8"/><line class="cls-10" x1="1.53" y1="43.98" x2="81.58" y2="43.98"/><line class="cls-10" x1="1.53" y1="45.16" x2="81.58" y2="45.16"/><line class="cls-10" x1="1.53" y1="46.33" x2="81.58" y2="46.33"/></g><g class="cls-24"><line class="cls-10" x1="1.54" y1="31.03" x2="81.59" y2="31.03"/><line class="cls-10" x1="1.54" y1="32.21" x2="81.59" y2="32.21"/><line class="cls-10" x1="1.54" y1="33.39" x2="81.59" y2="33.39"/><line class="cls-10" x1="1.54" y1="34.57" x2="81.59" y2="34.57"/><line class="cls-10" x1="1.54" y1="35.74" x2="81.59" y2="35.74"/><line class="cls-10" x1="1.54" y1="35.74" x2="81.59" y2="35.74"/><line class="cls-10" x1="1.54" y1="36.92" x2="81.59" y2="36.92"/><line class="cls-10" x1="1.54" y1="38.1" x2="81.59" y2="38.1"/><line class="cls-10" x1="1.54" y1="39.27" x2="81.59" y2="39.27"/><line class="cls-10" x1="1.54" y1="40.45" x2="81.59" y2="40.45"/><line class="cls-10" x1="1.54" y1="41.63" x2="81.59" y2="41.63"/><line class="cls-10" x1="1.54" y1="42.81" x2="81.59" y2="42.81"/><line class="cls-10" x1="1.54" y1="42.81" x2="81.59" y2="42.81"/><line class="cls-10" x1="1.54" y1="43.98" x2="81.59" y2="43.98"/><line class="cls-10" x1="1.54" y1="45.16" x2="81.59" y2="45.16"/><line class="cls-10" x1="1.54" y1="46.34" x2="81.59" y2="46.34"/></g><text class="cls-2" transform="translate(41.58 17.73)">Re</text><text class="cls-3" transform="translate(8.15 35.65)">Fre<tspan class="cls-4" x="41.02" y="0">s</tspan><tspan x="50.68" y="0">h</tspan></text><text class="cls-5" transform="translate(41.58 17.73)">Re</text><text class="cls-6" transform="translate(8.15 35.65)">Fre<tspan class="cls-4" x="41.02" y="0">s</tspan><tspan x="50.68" y="0">h</tspan></text><text class="cls-7" transform="translate(41.58 17.73)">Re</text><text class="cls-8" transform="translate(8.15 35.77)">Fre<tspan class="cls-4" x="41.02" y="0">s</tspan><tspan x="50.68" y="0">h</tspan></text><g class="cls-25"><line class="cls-10" x1="1.04" y1="30.03" x2="81.09" y2="30.03"/><line class="cls-10" x1="1.04" y1="31.21" x2="81.09" y2="31.21"/><line class="cls-10" x1="1.04" y1="32.39" x2="81.09" y2="32.39"/><line class="cls-10" x1="1.04" y1="33.57" x2="81.09" y2="33.57"/><line class="cls-10" x1="1.04" y1="34.74" x2="81.09" y2="34.74"/><line class="cls-10" x1="1.04" y1="34.74" x2="81.09" y2="34.74"/><line class="cls-10" x1="1.04" y1="35.92" x2="81.09" y2="35.92"/><line class="cls-10" x1="1.04" y1="37.1" x2="81.09" y2="37.1"/><line class="cls-10" x1="1.04" y1="38.27" x2="81.09" y2="38.27"/><line class="cls-10" x1="1.04" y1="39.45" x2="81.09" y2="39.45"/><line class="cls-10" x1="1.04" y1="40.63" x2="81.09" y2="40.63"/><line class="cls-10" x1="1.04" y1="41.81" x2="81.09" y2="41.81"/><line class="cls-10" x1="1.04" y1="41.81" x2="81.09" y2="41.81"/><line class="cls-10" x1="1.04" y1="42.98" x2="81.09" y2="42.98"/><line class="cls-10" x1="1.04" y1="44.16" x2="81.09" y2="44.16"/><line class="cls-10" x1="1.04" y1="45.34" x2="81.09" y2="45.34"/></g><g class="cls-26"><line class="cls-10" x1="1" y1="30.39" x2="81.06" y2="30.39"/><line class="cls-10" x1="1" y1="31.57" x2="81.06" y2="31.57"/><line class="cls-10" x1="1" y1="32.74" x2="81.06" y2="32.74"/><line class="cls-10" x1="1" y1="33.92" x2="81.06" y2="33.92"/><line class="cls-10" x1="1" y1="35.1" x2="81.06" y2="35.1"/><line class="cls-10" x1="1" y1="35.1" x2="81.06" y2="35.1"/><line class="cls-10" x1="1" y1="36.28" x2="81.06" y2="36.28"/><line class="cls-10" x1="1" y1="37.45" x2="81.06" y2="37.45"/><line class="cls-10" x1="1" y1="38.63" x2="81.06" y2="38.63"/><line class="cls-10" x1="1" y1="39.81" x2="81.06" y2="39.81"/><line class="cls-10" x1="1" y1="40.99" x2="81.06" y2="40.99"/><line class="cls-10" x1="1" y1="42.16" x2="81.06" y2="42.16"/><line class="cls-10" x1="1" y1="42.16" x2="81.06" y2="42.16"/><line class="cls-10" x1="1" y1="43.34" x2="81.06" y2="43.34"/><line class="cls-10" x1="1" y1="44.52" x2="81.06" y2="44.52"/><line class="cls-10" x1="1" y1="45.69" x2="81.06" y2="45.69"/></g><g class="cls-27"><line class="cls-10" x1="1" y1="30.33" x2="81.05" y2="30.33"/><line class="cls-10" x1="1" y1="31.51" x2="81.05" y2="31.51"/><line class="cls-10" x1="1" y1="32.69" x2="81.05" y2="32.69"/><line class="cls-10" x1="1" y1="33.87" x2="81.05" y2="33.87"/><line class="cls-10" x1="1" y1="35.04" x2="81.05" y2="35.04"/><line class="cls-10" x1="1" y1="35.04" x2="81.05" y2="35.04"/><line class="cls-10" x1="1" y1="36.22" x2="81.05" y2="36.22"/><line class="cls-10" x1="1" y1="37.4" x2="81.05" y2="37.4"/><line class="cls-10" x1="1" y1="38.58" x2="81.05" y2="38.58"/><line class="cls-10" x1="1" y1="39.75" x2="81.05" y2="39.75"/><line class="cls-10" x1="1" y1="40.93" x2="81.05" y2="40.93"/><line class="cls-10" x1="1" y1="42.11" x2="81.05" y2="42.11"/><line class="cls-10" x1="1" y1="42.11" x2="81.05" y2="42.11"/><line class="cls-10" x1="1" y1="43.28" x2="81.05" y2="43.28"/><line class="cls-10" x1="1" y1="44.46" x2="81.05" y2="44.46"/><line class="cls-10" x1="1" y1="45.64" x2="81.05" y2="45.64"/></g><g class="cls-28"><line class="cls-10" x1="1.03" y1="30.33" x2="81.08" y2="30.33"/><line class="cls-10" x1="1.03" y1="31.51" x2="81.08" y2="31.51"/><line class="cls-10" x1="1.03" y1="32.68" x2="81.08" y2="32.68"/><line class="cls-10" x1="1.03" y1="33.86" x2="81.08" y2="33.86"/><line class="cls-10" x1="1.03" y1="35.04" x2="81.08" y2="35.04"/><line class="cls-10" x1="1.03" y1="35.04" x2="81.08" y2="35.04"/><line class="cls-10" x1="1.03" y1="36.21" x2="81.08" y2="36.21"/><line class="cls-10" x1="1.03" y1="37.39" x2="81.08" y2="37.39"/><line class="cls-10" x1="1.03" y1="38.57" x2="81.08" y2="38.57"/><line class="cls-10" x1="1.03" y1="39.75" x2="81.08" y2="39.75"/><line class="cls-10" x1="1.03" y1="40.92" x2="81.08" y2="40.92"/><line class="cls-10" x1="1.03" y1="42.1" x2="81.08" y2="42.1"/><line class="cls-10" x1="1.03" y1="42.1" x2="81.08" y2="42.1"/><line class="cls-10" x1="1.03" y1="43.28" x2="81.08" y2="43.28"/><line class="cls-10" x1="1.03" y1="44.46" x2="81.08" y2="44.46"/><line class="cls-10" x1="1.03" y1="45.63" x2="81.08" y2="45.63"/></g><g class="cls-29"><line class="cls-10" x1="1.04" y1="30.33" x2="81.09" y2="30.33"/><line class="cls-10" x1="1.04" y1="31.51" x2="81.09" y2="31.51"/><line class="cls-10" x1="1.04" y1="32.69" x2="81.09" y2="32.69"/><line class="cls-10" x1="1.04" y1="33.87" x2="81.09" y2="33.87"/><line class="cls-10" x1="1.04" y1="35.04" x2="81.09" y2="35.04"/><line class="cls-10" x1="1.04" y1="35.04" x2="81.09" y2="35.04"/><line class="cls-10" x1="1.04" y1="36.22" x2="81.09" y2="36.22"/><line class="cls-10" x1="1.04" y1="37.4" x2="81.09" y2="37.4"/><line class="cls-10" x1="1.04" y1="38.57" x2="81.09" y2="38.57"/><line class="cls-10" x1="1.04" y1="39.75" x2="81.09" y2="39.75"/><line class="cls-10" x1="1.04" y1="40.93" x2="81.09" y2="40.93"/><line class="cls-10" x1="1.04" y1="42.11" x2="81.09" y2="42.11"/><line class="cls-10" x1="1.04" y1="42.11" x2="81.09" y2="42.11"/><line class="cls-10" x1="1.04" y1="43.28" x2="81.09" y2="43.28"/><line class="cls-10" x1="1.04" y1="44.46" x2="81.09" y2="44.46"/><line class="cls-10" x1="1.04" y1="45.64" x2="81.09" y2="45.64"/></g><text class="cls-2" transform="translate(41.08 17.03)">Re</text><text class="cls-3" transform="translate(7.65 34.95)">Fre<tspan class="cls-4" x="41.02" y="0">s</tspan><tspan x="50.68" y="0">h</tspan></text><text class="cls-5" transform="translate(41.08 17.03)">Re</text><text class="cls-6" transform="translate(7.65 34.95)">Fre<tspan class="cls-4" x="41.02" y="0">s</tspan><tspan x="50.68" y="0">h</tspan></text><text class="cls-7" transform="translate(41.08 17.03)">Re</text><text class="cls-8" transform="translate(7.65 35.07)">Fre<tspan class="cls-4" x="41.02" y="0">s</tspan><tspan x="50.68" y="0">h</tspan></text><g class="cls-30"><line class="cls-10" x1="0.54" y1="29.33" x2="80.59" y2="29.33"/><line class="cls-10" x1="0.54" y1="30.51" x2="80.59" y2="30.51"/><line class="cls-10" x1="0.54" y1="31.69" x2="80.59" y2="31.69"/><line class="cls-10" x1="0.54" y1="32.87" x2="80.59" y2="32.87"/><line class="cls-10" x1="0.54" y1="34.04" x2="80.59" y2="34.04"/><line class="cls-10" x1="0.54" y1="34.04" x2="80.59" y2="34.04"/><line class="cls-10" x1="0.54" y1="35.22" x2="80.59" y2="35.22"/><line class="cls-10" x1="0.54" y1="36.4" x2="80.59" y2="36.4"/><line class="cls-10" x1="0.54" y1="37.57" x2="80.59" y2="37.57"/><line class="cls-10" x1="0.54" y1="38.75" x2="80.59" y2="38.75"/><line class="cls-10" x1="0.54" y1="39.93" x2="80.59" y2="39.93"/><line class="cls-10" x1="0.54" y1="41.11" x2="80.59" y2="41.11"/><line class="cls-10" x1="0.54" y1="41.11" x2="80.59" y2="41.11"/><line class="cls-10" x1="0.54" y1="42.28" x2="80.59" y2="42.28"/><line class="cls-10" x1="0.54" y1="43.46" x2="80.59" y2="43.46"/><line class="cls-10" x1="0.54" y1="44.64" x2="80.59" y2="44.64"/></g><g class="cls-31"><line class="cls-10" x1="0.51" y1="29.69" x2="80.56" y2="29.69"/><line class="cls-10" x1="0.51" y1="30.87" x2="80.56" y2="30.87"/><line class="cls-10" x1="0.51" y1="32.04" x2="80.56" y2="32.04"/><line class="cls-10" x1="0.51" y1="33.22" x2="80.56" y2="33.22"/><line class="cls-10" x1="0.51" y1="34.4" x2="80.56" y2="34.4"/><line class="cls-10" x1="0.51" y1="34.4" x2="80.56" y2="34.4"/><line class="cls-10" x1="0.51" y1="35.58" x2="80.56" y2="35.58"/><line class="cls-10" x1="0.51" y1="36.75" x2="80.56" y2="36.75"/><line class="cls-10" x1="0.51" y1="37.93" x2="80.56" y2="37.93"/><line class="cls-10" x1="0.51" y1="39.11" x2="80.56" y2="39.11"/><line class="cls-10" x1="0.51" y1="40.29" x2="80.56" y2="40.29"/><line class="cls-10" x1="0.51" y1="41.46" x2="80.56" y2="41.46"/><line class="cls-10" x1="0.51" y1="41.46" x2="80.56" y2="41.46"/><line class="cls-10" x1="0.51" y1="42.64" x2="80.56" y2="42.64"/><line class="cls-10" x1="0.51" y1="43.82" x2="80.56" y2="43.82"/><line class="cls-10" x1="0.51" y1="44.99" x2="80.56" y2="44.99"/></g><g class="cls-32"><line class="cls-10" x1="0.5" y1="29.63" x2="80.55" y2="29.63"/><line class="cls-10" x1="0.5" y1="30.81" x2="80.55" y2="30.81"/><line class="cls-10" x1="0.5" y1="31.99" x2="80.55" y2="31.99"/><line class="cls-10" x1="0.5" y1="33.17" x2="80.55" y2="33.17"/><line class="cls-10" x1="0.5" y1="34.34" x2="80.55" y2="34.34"/><line class="cls-10" x1="0.5" y1="34.34" x2="80.55" y2="34.34"/><line class="cls-10" x1="0.5" y1="35.52" x2="80.55" y2="35.52"/><line class="cls-10" x1="0.5" y1="36.7" x2="80.55" y2="36.7"/><line class="cls-10" x1="0.5" y1="37.88" x2="80.55" y2="37.88"/><line class="cls-10" x1="0.5" y1="39.05" x2="80.55" y2="39.05"/><line class="cls-10" x1="0.5" y1="40.23" x2="80.55" y2="40.23"/><line class="cls-10" x1="0.5" y1="41.41" x2="80.55" y2="41.41"/><line class="cls-10" x1="0.5" y1="41.41" x2="80.55" y2="41.41"/><line class="cls-10" x1="0.5" y1="42.58" x2="80.55" y2="42.58"/><line class="cls-10" x1="0.5" y1="43.76" x2="80.55" y2="43.76"/><line class="cls-10" x1="0.5" y1="44.94" x2="80.55" y2="44.94"/></g><g class="cls-33"><line class="cls-10" x1="0.53" y1="29.63" x2="80.59" y2="29.63"/><line class="cls-10" x1="0.53" y1="30.81" x2="80.59" y2="30.81"/><line class="cls-10" x1="0.53" y1="31.98" x2="80.59" y2="31.98"/><line class="cls-10" x1="0.53" y1="33.16" x2="80.59" y2="33.16"/><line class="cls-10" x1="0.53" y1="34.34" x2="80.59" y2="34.34"/><line class="cls-10" x1="0.53" y1="34.34" x2="80.59" y2="34.34"/><line class="cls-10" x1="0.53" y1="35.51" x2="80.59" y2="35.51"/><line class="cls-10" x1="0.53" y1="36.69" x2="80.59" y2="36.69"/><line class="cls-10" x1="0.53" y1="37.87" x2="80.59" y2="37.87"/><line class="cls-10" x1="0.53" y1="39.05" x2="80.59" y2="39.05"/><line class="cls-10" x1="0.53" y1="40.22" x2="80.59" y2="40.22"/><line class="cls-10" x1="0.53" y1="41.4" x2="80.59" y2="41.4"/><line class="cls-10" x1="0.53" y1="41.4" x2="80.59" y2="41.4"/><line class="cls-10" x1="0.53" y1="42.58" x2="80.59" y2="42.58"/><line class="cls-10" x1="0.53" y1="43.76" x2="80.59" y2="43.76"/><line class="cls-10" x1="0.53" y1="44.93" x2="80.59" y2="44.93"/></g><g class="cls-34"><line class="cls-10" x1="0.54" y1="29.63" x2="80.59" y2="29.63"/><line class="cls-10" x1="0.54" y1="30.81" x2="80.59" y2="30.81"/><line class="cls-10" x1="0.54" y1="31.99" x2="80.59" y2="31.99"/><line class="cls-10" x1="0.54" y1="33.17" x2="80.59" y2="33.17"/><line class="cls-10" x1="0.54" y1="34.34" x2="80.59" y2="34.34"/><line class="cls-10" x1="0.54" y1="34.34" x2="80.59" y2="34.34"/><line class="cls-10" x1="0.54" y1="35.52" x2="80.59" y2="35.52"/><line class="cls-10" x1="0.54" y1="36.7" x2="80.59" y2="36.7"/><line class="cls-10" x1="0.54" y1="37.87" x2="80.59" y2="37.87"/><line class="cls-10" x1="0.54" y1="39.05" x2="80.59" y2="39.05"/><line class="cls-10" x1="0.54" y1="40.23" x2="80.59" y2="40.23"/><line class="cls-10" x1="0.54" y1="41.41" x2="80.59" y2="41.41"/><line class="cls-10" x1="0.54" y1="41.41" x2="80.59" y2="41.41"/><line class="cls-10" x1="0.54" y1="42.58" x2="80.59" y2="42.58"/><line class="cls-10" x1="0.54" y1="43.76" x2="80.59" y2="43.76"/><line class="cls-10" x1="0.54" y1="44.94" x2="80.59" y2="44.94"/></g><text class="cls-2" transform="translate(40.58 16.33)">Re</text><text class="cls-3" transform="translate(7.15 34.25)">Fre<tspan class="cls-4" x="41.02" y="0">s</tspan><tspan x="50.68" y="0">h</tspan></text><text class="cls-5" transform="translate(40.58 16.33)">Re</text><text class="cls-6" transform="translate(7.15 34.25)">Fre<tspan class="cls-4" x="41.02" y="0">s</tspan><tspan x="50.68" y="0">h</tspan></text><text class="cls-7" transform="translate(40.58 16.33)">Re</text><text class="cls-8" transform="translate(7.15 34.37)">Fre<tspan class="cls-4" x="41.02" y="0">s</tspan><tspan x="50.68" y="0">h</tspan></text><g class="cls-35"><line class="cls-10" x1="0.04" y1="28.63" x2="80.09" y2="28.63"/><line class="cls-10" x1="0.04" y1="29.81" x2="80.09" y2="29.81"/><line class="cls-10" x1="0.04" y1="30.99" x2="80.09" y2="30.99"/><line class="cls-10" x1="0.04" y1="32.17" x2="80.09" y2="32.17"/><line class="cls-10" x1="0.04" y1="33.34" x2="80.09" y2="33.34"/><line class="cls-10" x1="0.04" y1="33.34" x2="80.09" y2="33.34"/><line class="cls-10" x1="0.04" y1="34.52" x2="80.09" y2="34.52"/><line class="cls-10" x1="0.04" y1="35.7" x2="80.09" y2="35.7"/><line class="cls-10" x1="0.04" y1="36.87" x2="80.09" y2="36.87"/><line class="cls-10" x1="0.04" y1="38.05" x2="80.09" y2="38.05"/><line class="cls-10" x1="0.04" y1="39.23" x2="80.09" y2="39.23"/><line class="cls-10" x1="0.04" y1="40.41" x2="80.09" y2="40.41"/><line class="cls-10" x1="0.04" y1="40.41" x2="80.09" y2="40.41"/><line class="cls-10" x1="0.04" y1="41.58" x2="80.09" y2="41.58"/><line class="cls-10" x1="0.04" y1="42.76" x2="80.09" y2="42.76"/><line class="cls-10" x1="0.04" y1="43.94" x2="80.09" y2="43.94"/></g><g class="cls-36"><line class="cls-10" x1="0.01" y1="28.99" x2="80.06" y2="28.99"/><line class="cls-10" x1="0.01" y1="30.17" x2="80.06" y2="30.17"/><line class="cls-10" x1="0.01" y1="31.34" x2="80.06" y2="31.34"/><line class="cls-10" x1="0.01" y1="32.52" x2="80.06" y2="32.52"/><line class="cls-10" x1="0.01" y1="33.7" x2="80.06" y2="33.7"/><line class="cls-10" x1="0.01" y1="33.7" x2="80.06" y2="33.7"/><line class="cls-10" x1="0.01" y1="34.88" x2="80.06" y2="34.88"/><line class="cls-10" x1="0.01" y1="36.05" x2="80.06" y2="36.05"/><line class="cls-10" x1="0.01" y1="37.23" x2="80.06" y2="37.23"/><line class="cls-10" x1="0.01" y1="38.41" x2="80.06" y2="38.41"/><line class="cls-10" x1="0.01" y1="39.59" x2="80.06" y2="39.59"/><line class="cls-10" x1="0.01" y1="40.76" x2="80.06" y2="40.76"/><line class="cls-10" x1="0.01" y1="40.76" x2="80.06" y2="40.76"/><line class="cls-10" x1="0.01" y1="41.94" x2="80.06" y2="41.94"/><line class="cls-10" x1="0.01" y1="43.12" x2="80.06" y2="43.12"/><line class="cls-10" x1="0.01" y1="44.29" x2="80.06" y2="44.29"/></g><g class="cls-37"><line class="cls-10" y1="28.93" x2="80.05" y2="28.93"/><line class="cls-10" y1="30.11" x2="80.05" y2="30.11"/><line class="cls-10" y1="31.29" x2="80.05" y2="31.29"/><line class="cls-10" y1="32.47" x2="80.05" y2="32.47"/><line class="cls-10" y1="33.64" x2="80.05" y2="33.64"/><line class="cls-10" y1="33.64" x2="80.05" y2="33.64"/><line class="cls-10" y1="34.82" x2="80.05" y2="34.82"/><line class="cls-10" y1="36" x2="80.05" y2="36"/><line class="cls-10" y1="37.18" x2="80.05" y2="37.18"/><line class="cls-10" y1="38.35" x2="80.05" y2="38.35"/><line class="cls-10" y1="39.53" x2="80.05" y2="39.53"/><line class="cls-10" y1="40.71" x2="80.05" y2="40.71"/><line class="cls-10" y1="40.71" x2="80.05" y2="40.71"/><line class="cls-10" y1="41.88" x2="80.05" y2="41.88"/><line class="cls-10" y1="43.06" x2="80.05" y2="43.06"/><line class="cls-10" y1="44.24" x2="80.05" y2="44.24"/></g><g class="cls-38"><line class="cls-10" x1="0.03" y1="28.93" x2="80.09" y2="28.93"/><line class="cls-10" x1="0.03" y1="30.11" x2="80.09" y2="30.11"/><line class="cls-10" x1="0.03" y1="31.28" x2="80.09" y2="31.28"/><line class="cls-10" x1="0.03" y1="32.46" x2="80.09" y2="32.46"/><line class="cls-10" x1="0.03" y1="33.64" x2="80.09" y2="33.64"/><line class="cls-10" x1="0.03" y1="33.64" x2="80.09" y2="33.64"/><line class="cls-10" x1="0.03" y1="34.81" x2="80.09" y2="34.81"/><line class="cls-10" x1="0.03" y1="35.99" x2="80.09" y2="35.99"/><line class="cls-10" x1="0.03" y1="37.17" x2="80.09" y2="37.17"/><line class="cls-10" x1="0.03" y1="38.35" x2="80.09" y2="38.35"/><line class="cls-10" x1="0.03" y1="39.52" x2="80.09" y2="39.52"/><line class="cls-10" x1="0.03" y1="40.7" x2="80.09" y2="40.7"/><line class="cls-10" x1="0.03" y1="40.7" x2="80.09" y2="40.7"/><line class="cls-10" x1="0.03" y1="41.88" x2="80.09" y2="41.88"/><line class="cls-10" x1="0.03" y1="43.06" x2="80.09" y2="43.06"/><line class="cls-10" x1="0.03" y1="44.23" x2="80.09" y2="44.23"/></g><g class="cls-39"><line class="cls-10" x1="0.04" y1="28.93" x2="80.09" y2="28.93"/><line class="cls-10" x1="0.04" y1="30.11" x2="80.09" y2="30.11"/><line class="cls-10" x1="0.04" y1="31.29" x2="80.09" y2="31.29"/><line class="cls-10" x1="0.04" y1="32.47" x2="80.09" y2="32.47"/><line class="cls-10" x1="0.04" y1="33.64" x2="80.09" y2="33.64"/><line class="cls-10" x1="0.04" y1="33.64" x2="80.09" y2="33.64"/><line class="cls-10" x1="0.04" y1="34.82" x2="80.09" y2="34.82"/><line class="cls-10" x1="0.04" y1="36" x2="80.09" y2="36"/><line class="cls-10" x1="0.04" y1="37.17" x2="80.09" y2="37.17"/><line class="cls-10" x1="0.04" y1="38.35" x2="80.09" y2="38.35"/><line class="cls-10" x1="0.04" y1="39.53" x2="80.09" y2="39.53"/><line class="cls-10" x1="0.04" y1="40.71" x2="80.09" y2="40.71"/><line class="cls-10" x1="0.04" y1="40.71" x2="80.09" y2="40.71"/><line class="cls-10" x1="0.04" y1="41.88" x2="80.09" y2="41.88"/><line class="cls-10" x1="0.04" y1="43.06" x2="80.09" y2="43.06"/><line class="cls-10" x1="0.04" y1="44.24" x2="80.09" y2="44.24"/></g></g></g></svg>